<?xml version="1.0" encoding="UTF-8" standalone="no"?>
<!-- Created with Inkscape (http://www.inkscape.org/) -->

<svg
   xmlns:dc="http://purl.org/dc/elements/1.1/"
   xmlns:cc="http://creativecommons.org/ns#"
   xmlns:rdf="http://www.w3.org/1999/02/22-rdf-syntax-ns#"
   xmlns:svg="http://www.w3.org/2000/svg"
   xmlns="http://www.w3.org/2000/svg"
   xmlns:sodipodi="http://sodipodi.sourceforge.net/DTD/sodipodi-0.dtd"
   xmlns:inkscape="http://www.inkscape.org/namespaces/inkscape"
   version="1.1"
   id="svg1078"
   xml:space="preserve"
   width="880"
   height="880"
   viewBox="0 0 880 880"
   sodipodi:docname="blue-white-halftone-art-svg.svg"
   inkscape:version="0.92.4 (5da689c313, 2019-01-14)"><metadata
     id="metadata1084"><rdf:RDF><cc:Work
         rdf:about=""><dc:format>image/svg+xml</dc:format><dc:type
           rdf:resource="http://purl.org/dc/dcmitype/StillImage" /><dc:title></dc:title></cc:Work></rdf:RDF></metadata><defs
     id="defs1082"><clipPath
       clipPathUnits="userSpaceOnUse"
       id="clipPath1094"><path
         d="M 0,660 H 660 V 0 H 0 Z"
         id="path1092"
         inkscape:connector-curvature="0" /></clipPath></defs><sodipodi:namedview
     pagecolor="#ffffff"
     bordercolor="#666666"
     borderopacity="1"
     objecttolerance="10"
     gridtolerance="10"
     guidetolerance="10"
     inkscape:pageopacity="0"
     inkscape:pageshadow="2"
     inkscape:window-width="1920"
     inkscape:window-height="1018"
     id="namedview1080"
     showgrid="false"
     inkscape:zoom="0.96477273"
     inkscape:cx="440"
     inkscape:cy="440"
     inkscape:window-x="-8"
     inkscape:window-y="-8"
     inkscape:window-maximized="1"
     inkscape:current-layer="g1086" /><g
     id="g1086"
     inkscape:groupmode="layer"
     inkscape:label="abstract-779-publicdomainvectors.org"
     transform="matrix(1.3333333,0,0,-1.3333333,0,880)"><g
       id="g1088"><g
         id="g1090"
         clip-path="url(#clipPath1094)"><path
           d="M 660,0 H 0 v 660 h 660 z"
           style="fill:#0c8db4;fill-opacity:1;fill-rule:nonzero;stroke:none"
           id="path1096"
           inkscape:connector-curvature="0" /><path
           d="m 652.529,33.908 c 1.959,0.302 2.43,2.097 4.525,2.267 -0.236,2.182 -1.278,3.556 -2.261,4.985 -1.273,-0.839 -2.822,-1.403 -4.523,-1.812 -0.03,-2.6 2.411,-2.721 2.259,-5.44 m -61.508,79.33 c -0.446,-0.354 -1.127,-0.448 -1.812,-0.907 -0.431,-0.29 -0.935,-1.119 -1.357,-1.359 -3.66,-2.074 -11.816,-4.047 -16.281,-1.813 -0.353,-0.101 -0.894,-0.013 -0.905,-0.454 8.76,-2.853 13.221,-10.019 14.02,-20.853 2.756,6.454 9.091,9.325 16.284,11.334 -4.274,3.574 -7.336,8.364 -7.69,15.866 -1.181,0.466 -1.502,-1.206 -2.259,-1.814 m 7.236,17.679 c 3.102,4.292 7.898,6.89 13.567,8.614 -3.913,3.178 -5.646,8.544 -6.784,14.506 -3.75,-4.248 -9.217,-6.781 -17.188,-6.799 0.002,0.251 -0.366,0.514 -0.454,0 6.018,-3.038 8.974,-9.139 10.859,-16.321 m -7.236,-17.679 c -0.446,-0.354 -1.127,-0.448 -1.812,-0.907 -0.431,-0.29 -0.935,-1.119 -1.357,-1.359 -3.66,-2.074 -11.816,-4.047 -16.281,-1.813 -0.353,-0.101 -0.894,-0.013 -0.905,-0.454 8.76,-2.853 13.221,-10.019 14.02,-20.853 2.756,6.454 9.091,9.325 16.284,11.334 -4.274,3.574 -7.336,8.364 -7.69,15.866 -1.181,0.466 -1.502,-1.206 -2.259,-1.814 m -9.048,370.815 c 3.041,5.716 8.719,8.79 15.831,10.426 0.301,1.32 -1.086,1.393 -1.811,2.268 -0.755,0.91 -1.704,3.044 -2.26,3.626 -2.661,2.783 -2.253,7.618 -3.618,11.333 -3.935,-5.58 -11.484,-9.432 -21.261,-7.707 0.019,1.33 -2.683,-0.271 -0.449,0 7.988,-3.176 12.39,-9.943 13.568,-19.946 m -48.848,-51.224 c 1.527,-1.801 2.724,-2.983 4.523,-4.08 0.766,-0.47 2.091,-1.408 3.166,-1.814 2.301,-0.871 10.406,-1.055 11.308,-0.906 3.136,0.516 6.444,2.703 8.142,4.079 2.348,1.907 5.378,5.625 6.331,8.161 1.365,3.629 1.034,11.147 0,14.052 -2.746,7.697 -10.954,14.613 -22.616,12.693 0.66,0.108 -0.25,-0.024 -2.711,-0.907 -3.299,-1.18 -6.704,-3.996 -7.238,-4.533 -2.329,-2.335 -3.489,-4.697 -4.523,-7.707 -0.843,-2.448 -1.049,-7.168 -0.452,-10.426 0.768,-4.218 2.278,-6.498 4.07,-8.612 m -0.905,131.462 c 1.527,-1.801 2.727,-2.982 4.523,-4.08 0.77,-0.469 2.091,-1.407 3.166,-1.813 2.304,-0.871 10.405,-1.055 11.307,-0.906 3.139,0.516 6.445,2.703 8.142,4.079 2.348,1.907 5.377,5.625 6.331,8.16 1.366,3.63 1.038,11.148 0,14.053 -2.742,7.695 -10.951,14.612 -22.615,12.693 0.659,0.108 -0.25,-0.025 -2.713,-0.908 -3.294,-1.179 -6.702,-3.995 -7.236,-4.532 -2.33,-2.335 -3.489,-4.697 -4.523,-7.707 -0.843,-2.448 -1.045,-7.168 -0.454,-10.426 0.774,-4.218 2.279,-6.499 4.072,-8.613 M 556.192,17.588 c -1.567,4.077 -7.132,9.443 -10.854,10.881 -8.219,3.17 -16.932,-0.653 -20.808,-4.535 -1.917,-1.921 -3.883,-4.602 -4.523,-6.346 -1.852,-5.059 -1.038,-13.629 1.358,-16.774 h 33.469 c 3.041,5.824 2.985,12.54 1.358,16.774 m -33.921,112.877 c 1.141,-1.481 1.1,-1.743 2.259,-2.267 0.133,-0.06 0.306,-0.795 0.453,-0.907 1.594,-1.224 3.515,-2.636 4.977,-3.174 4.711,-1.731 9.327,-1.209 11.308,-0.907 -0.233,-0.035 2.742,0.753 3.165,0.907 1.774,0.654 3.798,2.25 4.976,3.174 2.212,1.739 5.054,5.455 5.878,7.707 3.107,8.489 -0.508,16.827 -4.523,20.853 -4.421,4.431 -12.806,7.473 -20.804,4.533 -2.484,-0.913 -5.565,-3.763 -6.335,-4.533 -1.332,-1.338 -2.904,-3.277 -3.618,-4.534 -1.59,-2.804 -2.643,-6.879 -1.808,-12.693 0.045,-0.303 0.449,-0.443 0.453,-0.452 0.737,-4.034 1.966,-5.568 3.619,-7.707 m -4.977,528.571 c 0.424,-0.783 1.527,-1.839 1.811,-2.267 0.891,-1.351 2.26,-2.572 3.166,-3.175 1.221,-0.812 2.23,-1.197 3.618,-1.813 0.22,-0.097 0.618,-0.819 0.905,-0.906 0.553,-0.169 1.252,0.161 1.808,0 1.027,-0.295 1.777,-0.808 2.712,-0.907 6.769,-0.719 11.381,2.003 14.477,4.534 1.781,1.459 3.323,2.905 4.067,4.986 -10.704,-0.301 -22.611,0.604 -32.564,-0.452 m 2.713,-395.296 c 1.288,-2.225 4.163,-5.211 5.882,-6.346 0.412,-0.274 1.001,-0.233 1.354,-0.453 1.153,-0.717 1.528,-0.892 3.169,-1.361 6.445,-1.835 13.277,-0.209 16.734,2.267 1.825,1.307 3.838,2.999 4.976,4.534 0.371,0.506 0.144,1.269 0.452,1.813 0.443,0.788 1.244,1.107 1.355,1.36 0.217,0.49 0.203,1.38 0.453,2.266 1.77,6.238 0.258,13.244 -2.26,16.773 -1.304,1.828 -3.008,3.861 -4.524,4.986 -0.504,0.376 -1.266,0.146 -1.807,0.454 -0.777,0.439 -0.95,1.178 -1.358,1.36 -0.49,0.214 -1.377,0.2 -2.264,0.453 -0.722,0.206 -1.605,0.806 -2.26,0.908 -6.482,0.99 -11.698,-1.185 -14.473,-3.175 -1.844,-1.32 -3.865,-3.028 -4.976,-4.532 -0.372,-0.505 -0.144,-1.27 -0.453,-1.814 -0.379,-0.674 -1.2,-1.004 -1.355,-1.36 -0.162,-0.367 -0.257,-1.572 -0.453,-2.266 -0.71,-2.504 -0.941,-6.638 -0.452,-9.52 0.523,-3.066 1.48,-4.99 2.26,-6.347 m 8.141,124.21 c 2.967,-1.218 9.196,-1.82 12.666,-0.906 2.622,0.69 6.438,3.091 8.595,5.439 2.33,2.539 4.49,6.567 4.973,9.52 1.299,7.925 -1.542,12.472 -4.973,16.319 -2.26,2.532 -5.355,5.04 -8.595,5.893 -11.101,2.92 -18.831,-3.489 -22.162,-9.519 -0.46,-0.828 -1.082,-1.535 -1.358,-2.267 -1.012,-2.693 -0.854,-8.229 -0.452,-10.426 1.295,-7.09 5.749,-11.772 11.306,-14.053 m -7.236,136.449 c 2.908,-2.968 6.346,-5.365 11.308,-5.893 1.188,-0.127 5.54,0.066 4.976,0 8.458,0.999 15.455,8.974 16.281,16.772 0.176,1.638 0.183,3.45 0,4.987 -0.899,7.64 -7.705,15.358 -16.734,16.32 -4.821,0.514 -8.708,-0.58 -11.76,-2.267 -0.795,-0.44 -0.979,-1.175 -1.807,-1.813 -0.383,-0.294 -1.016,-0.19 -1.358,-0.454 -0.574,-0.44 -1.564,-1.492 -1.811,-1.813 -0.287,-0.377 -0.148,-0.96 -0.452,-1.36 -0.538,-0.703 -1.418,-1.14 -1.808,-1.813 -0.755,-1.304 -1.575,-3.478 -1.811,-4.534 -0.541,-2.449 -0.298,-6.305 0,-8.159 0.832,-5.158 2.517,-7.463 4.976,-9.973 M 506.439,98.28 c 0.818,-3.907 2.128,-5.245 3.619,-7.255 0.534,-0.719 0.821,-1.749 1.358,-2.265 0.501,-0.484 1.579,-0.881 2.26,-1.363 2.521,-1.777 4.652,-3.186 8.595,-3.626 11.583,-1.289 19.802,7.272 20.803,16.322 0.947,8.537 -3.445,14.234 -7.689,17.226 -3.228,2.275 -8.227,4.317 -13.567,3.626 -3.085,-0.4 -9.416,-3.938 -10.855,-5.44 -0.232,-0.242 -0.718,-1.354 -1.358,-2.267 -1.355,-1.928 -2.05,-3.105 -2.712,-5.438 -0.266,-0.939 -0.807,-1.606 -0.907,-2.268 -0.283,-1.924 0.343,-5.676 0.453,-6.346 0.048,-0.292 -0.062,-0.618 0,-0.906 m 1.359,126.476 c 1.664,-2.882 4.6,-5.528 7.236,-6.801 10.112,-4.88 21.132,-0.607 25.327,8.16 2.293,4.79 2.025,12.093 0,16.319 -3.93,8.215 -15.175,13.277 -24.874,8.614 -2.742,-1.318 -6.129,-4.549 -7.689,-7.252 -0.464,-0.801 -1.138,-1.71 -1.359,-2.269 -1.21,-3.072 -1.346,-6.85 -0.905,-9.972 0.452,-3.194 1.284,-5.109 2.264,-6.799 m -0.905,131.915 c 1.663,-2.881 4.6,-5.528 7.236,-6.801 10.111,-4.878 21.131,-0.606 25.327,8.161 2.293,4.792 2.024,12.093 0,16.319 -3.931,8.215 -15.176,13.276 -24.875,8.614 -2.742,-1.317 -6.128,-4.549 -7.688,-7.253 -0.464,-0.799 -1.138,-1.71 -1.359,-2.267 -1.211,-3.073 -1.347,-6.851 -0.905,-9.973 0.452,-3.194 1.284,-5.108 2.264,-6.8 m -1.812,131.916 c 0.343,-0.63 1.223,-1.045 1.812,-1.814 0.29,-0.383 0.187,-1.015 0.452,-1.36 0.438,-0.576 1.487,-1.567 1.807,-1.813 0.379,-0.288 0.961,-0.147 1.359,-0.454 0.82,-0.629 1.134,-1.445 1.806,-1.813 11.923,-6.507 27.592,2.077 27.592,16.32 0,8.816 -7.263,18.586 -18.544,18.586 -3.335,0 -6.283,-0.758 -9.048,-2.266 -0.625,-0.343 -0.949,-1.156 -1.806,-1.813 -0.383,-0.294 -1.013,-0.191 -1.359,-0.454 -1.52,-1.166 -4.011,-4.795 -4.523,-5.893 -1.16,-2.492 -2.062,-5.315 -1.808,-9.52 0.019,-0.31 0.453,-0.47 0.453,-0.453 0.29,-2.729 1.06,-5.876 1.807,-7.253 m -0.901,131.916 c 0.341,-0.63 1.217,-1.045 1.806,-1.813 0.295,-0.384 0.189,-1.015 0.453,-1.361 0.439,-0.576 1.488,-1.568 1.808,-1.813 0.379,-0.288 0.96,-0.147 1.358,-0.453 0.821,-0.63 1.137,-1.446 1.811,-1.813 11.918,-6.508 27.588,2.076 27.588,16.319 0,8.815 -7.263,18.586 -18.544,18.586 -3.335,0 -6.283,-0.758 -9.044,-2.267 -0.63,-0.342 -0.953,-1.155 -1.811,-1.814 -0.382,-0.293 -1.012,-0.188 -1.358,-0.451 -1.52,-1.166 -4.009,-4.796 -4.52,-5.894 -1.16,-2.492 -2.061,-5.314 -1.811,-9.52 0.019,-0.31 0.456,-0.47 0.452,-0.453 0.291,-2.729 1.061,-5.877 1.812,-7.253 M 494.227,57.479 c 0.162,-0.6 0.713,-0.9 0.905,-1.359 0.291,-0.697 0.022,-1.482 0.453,-2.266 0.092,-0.171 0.769,-0.272 0.905,-0.455 0.298,-0.396 0.173,-1.005 0.449,-1.36 0.166,-0.208 0.718,-0.25 0.906,-0.453 0.291,-0.314 0.151,-1.05 0.453,-1.359 0.387,-0.399 1.6,-0.847 2.264,-1.36 0.798,-0.621 1.328,-1.551 1.806,-1.813 1.421,-0.781 6.622,-2.333 9.501,-2.267 2.393,0.056 6.96,1.369 8.591,2.267 0.173,0.093 0.272,0.771 0.452,0.906 0.401,0.301 1.005,0.171 1.359,0.453 3.356,2.673 5.219,5.661 6.331,9.974 3.607,14.015 -9.04,25.353 -22.163,21.759 -1.298,-0.356 -2.877,-0.704 -4.071,-1.361 -0.169,-0.094 -0.271,-0.769 -0.452,-0.907 -0.397,-0.3 -1.001,-0.169 -1.354,-0.451 -0.564,-0.448 -1.303,-1.307 -1.812,-1.814 -1.115,-1.119 -2.359,-2.488 -3.165,-3.626 -0.905,-1.28 -0.932,-3.222 -1.358,-4.988 -0.365,-1.514 -0.666,-2.788 -0.906,-4.531 -0.062,-0.476 0.442,-0.772 0.453,-0.907 0.169,-1.977 0.195,-3.114 0.453,-4.082 m 3.166,125.571 c 1.276,-1.41 1.928,-2.16 3.169,-2.72 0.154,-0.071 0.264,-0.799 0.449,-0.906 1.229,-0.712 2.539,-0.995 3.618,-1.362 0.518,-0.175 1.35,-0.81 1.81,-0.906 4.948,-1.036 9.725,0.618 12.666,2.268 3.486,1.957 5.021,3.644 6.784,6.799 0.89,1.597 1.958,3.087 2.259,4.534 1.05,5.023 -0.551,9.636 -2.259,12.692 -0.818,1.463 -1.579,2.942 -2.713,4.08 -1.141,1.144 -2.587,1.887 -4.071,2.719 -1.597,0.897 -3.154,1.981 -4.524,2.267 -4.299,0.9 -8.708,-0.184 -11.307,-1.36 -5.544,-2.505 -10.854,-8.475 -10.854,-16.318 0,-0.306 0.452,-0.5 0.452,-0.454 0.243,-5.779 2.08,-8.633 4.521,-11.333 m 1.81,128.743 c 1.207,-0.893 2.536,-1.87 3.618,-2.267 5.367,-1.974 10.763,-1.032 13.568,0 1.637,0.601 4.217,2.411 5.882,4.08 1.564,1.568 3.416,4.11 4.071,5.894 2.116,5.78 0.485,13.334 -1.812,16.772 -1.77,2.649 -5.753,5.921 -8.141,6.799 -6.055,2.226 -13.354,0.456 -16.733,-1.813 -5.355,-3.595 -8.867,-9.658 -7.236,-18.586 0.986,-5.409 3.702,-8.609 6.783,-10.879 m -0.905,131.915 c 1.211,-0.891 2.536,-1.869 3.618,-2.267 5.366,-1.973 10.763,-1.031 13.571,0 1.634,0.602 4.214,2.412 5.878,4.08 1.565,1.569 3.419,4.11 4.071,5.894 2.117,5.781 0.49,13.335 -1.811,16.773 -1.771,2.649 -5.753,5.921 -8.138,6.799 -6.058,2.226 -13.358,0.455 -16.737,-1.813 -5.355,-3.596 -8.866,-9.658 -7.236,-18.586 0.986,-5.41 3.703,-8.609 6.784,-10.88 m -5.878,137.356 c 0.36,-0.379 0.533,-0.975 0.901,-1.36 0.298,-0.31 0.162,-0.535 0.453,-0.907 1.561,-1.986 3.788,-3.058 5.429,-4.08 0.928,-0.578 1.193,-0.583 2.26,-0.906 0.692,-0.21 2.061,-1.25 2.717,-1.36 13.526,-2.283 23.281,9.256 21.256,21.305 -0.111,0.665 -0.725,2.333 -0.906,2.721 -0.714,1.556 -1.288,2.229 -2.259,3.627 -1.425,2.049 -2.275,3.255 -4.072,4.533 -1.659,1.178 -2.605,1.368 -4.07,1.813 -0.17,0.051 -0.666,0.831 -0.905,0.906 -3.027,0.957 -9.733,0.484 -11.761,-0.453 -1.675,-0.773 -3.158,-1.672 -4.524,-2.72 -2.241,-1.725 -2.918,-2.734 -4.067,-4.533 -0.928,-1.446 -0.949,-1.823 -1.358,-3.173 -0.051,-0.171 -0.828,-0.67 -0.906,-0.908 -0.721,-2.214 -0.467,-6.56 0,-9.065 0.398,-2.122 1.219,-4.821 1.812,-5.44 M 483.825,15.321 c 0.309,-0.608 0.077,-1.269 0.452,-1.812 0.947,-1.38 4.34,-4.326 5.426,-4.988 4.097,-2.486 12.945,-3.125 18.095,0 7.719,4.689 10.472,16.432 5.878,24.025 -2.245,3.718 -7.447,7.495 -11.76,8.161 -7.7,1.189 -15.246,-3.453 -18.091,-8.161 -1.682,-2.781 -2.521,-8.229 -1.811,-12.238 0.49,-2.753 1.163,-3.723 1.811,-4.987 m -2.713,135.996 c 1.296,-8.32 9.456,-14.592 18.996,-13.599 4.388,0.458 7.274,2.302 9.95,4.985 5.079,5.092 6.662,15.178 2.259,21.761 -1.766,2.643 -5.723,5.926 -8.137,6.8 -5.591,2.022 -12.567,0.377 -15.831,-1.815 -5.176,-3.474 -8.445,-9.137 -7.237,-17.225 0.044,-0.295 -0.048,-0.611 0,-0.907 m 1.355,126.477 c 1.854,-2.827 5.838,-6.441 8.595,-7.254 6.209,-1.831 11.73,-0.279 15.377,2.267 4.461,3.115 7.355,7.23 7.69,14.052 0.217,4.412 -1.764,7.503 -3.166,9.521 -2.437,3.507 -5.731,6.273 -9.952,7.253 -5.802,1.346 -10.723,-0.735 -13.568,-2.721 -5.134,-3.584 -8.19,-8.832 -7.236,-16.319 0.434,-3.4 1.056,-4.961 2.26,-6.799 m -0.903,131.916 c 1.856,-2.828 5.834,-6.441 8.592,-7.253 6.213,-1.832 11.731,-0.28 15.378,2.265 4.461,3.115 7.355,7.231 7.69,14.053 0.216,4.411 -1.764,7.502 -3.166,9.52 -2.437,3.506 -5.731,6.274 -9.95,7.253 -5.8,1.347 -10.725,-0.735 -13.571,-2.719 -5.134,-3.585 -8.189,-8.833 -7.236,-16.32 0.434,-3.4 1.056,-4.962 2.263,-6.799 m -3.168,137.808 c 0.265,-3.363 2.127,-6.827 3.618,-8.613 2.124,-2.543 5.97,-4.107 8.142,-4.986 1.133,-0.459 3.651,-0.907 4.976,-0.907 5.382,0 10.597,2.874 13.115,5.893 2.308,2.764 3.773,7.433 4.07,11.333 0.085,1.093 -0.139,3.369 -0.448,4.533 -0.553,2.053 -2.315,5.236 -3.622,6.8 -2.592,3.105 -8.274,5.893 -13.115,5.893 -4.351,0 -9.956,-2.106 -13.118,-5.893 -1.807,-2.168 -3.85,-6.501 -4.068,-12.24 -0.018,-0.458 0.435,-0.771 0.45,-0.906 0.037,-0.298 -0.022,-0.607 0,-0.907 m -9.497,-436.546 c 1.057,-4.544 5.058,-8.323 5.425,-8.615 0.185,-0.141 0.693,0.098 0.906,0 0.147,-0.064 0.288,-0.793 0.453,-0.905 0.21,-0.138 0.673,0.105 0.906,0 0.165,-0.075 0.25,-0.806 0.452,-0.907 0.354,-0.176 0.976,0.115 1.355,0 0.172,-0.052 0.669,-0.828 0.905,-0.906 3.457,-1.131 10.126,-0.301 11.761,0.454 1.49,0.687 1.689,1.188 3.165,2.264 0.409,0.298 1.001,0.181 1.358,0.455 0.228,0.174 0.681,0.682 0.905,0.907 0.814,0.817 0.814,1.524 1.355,2.266 0.559,0.766 1.557,1.299 1.811,1.815 0.173,0.353 -0.118,0.977 0,1.359 0.051,0.169 0.824,0.669 0.906,0.905 1.262,3.877 0.198,10.352 -0.906,12.695 -2.371,5.02 -8.19,8.517 -11.307,9.065 -2.327,0.408 -5.603,0.288 -7.237,0 -2.392,-0.421 -4.712,-2.298 -5.882,-3.172 -0.397,-0.299 -1.001,-0.178 -1.354,-0.454 -0.376,-0.294 -0.567,-1.01 -0.906,-1.359 -3.43,-3.526 -5.341,-8.394 -4.071,-14.962 0.055,-0.289 -0.066,-0.617 0,-0.905 m 5.425,122.849 c 0.815,-0.568 1.197,-1.04 1.812,-1.359 0.485,-0.254 1.2,-0.665 1.81,-0.907 3.497,-1.391 9.456,-0.877 11.757,0 3.096,1.176 5.691,3.341 7.236,5.439 2.78,3.769 4.251,10.608 2.264,15.867 -0.688,1.819 -1.432,2.952 -2.264,4.08 -1.233,1.675 -1.697,2.086 -3.165,3.172 -1.439,1.068 -4.793,2.891 -6.331,3.174 -5.812,1.067 -8.812,-0.593 -11.76,-2.267 -1.517,-0.862 -3.224,-1.797 -4.071,-2.719 -0.339,-0.369 -0.147,-0.924 -0.453,-1.36 -0.651,-0.935 -1.391,-1.363 -1.807,-2.266 -0.236,-0.508 -0.733,-0.943 -0.906,-1.36 -1.078,-2.628 -0.964,-7.418 -0.452,-9.973 1.016,-5.078 3.371,-7.451 6.33,-9.521 m -5.425,136.902 c 0.652,-1.119 1.395,-1.71 1.807,-2.265 0.324,-0.433 0.096,-1 0.453,-1.361 0.324,-0.323 1.009,-0.644 1.359,-0.906 1.461,-1.094 2.355,-2.047 4.071,-2.72 4.001,-1.571 8.138,-1.118 9.496,-0.907 2.02,0.314 4.277,1.643 5.882,2.72 2.205,1.483 3.173,2.516 4.523,4.533 3.549,5.307 3.254,13.263 0,18.133 -1.564,2.335 -2.44,3.133 -4.523,4.533 -0.968,0.65 -2.116,1.58 -2.713,1.813 -5.455,2.142 -12.246,0.294 -15.378,-1.813 -2.779,-1.864 -2.931,-2.15 -4.524,-4.533 -2.168,-3.24 -3.132,-7.327 -2.264,-12.239 0.49,-2.741 1.002,-3.593 1.811,-4.988 m 4.524,126.024 c 2.179,-1.335 6.897,-2.724 10.854,-2.268 1.602,0.186 5.029,1.774 5.879,2.268 2.075,1.204 3.758,2.972 4.976,4.533 0.571,0.732 0.607,1.155 0.906,1.813 0.073,0.168 0.806,0.247 0.901,0.453 0.254,0.537 0.203,1.836 0.454,2.72 0.308,1.084 0.809,1.842 0.905,2.72 0.482,4.439 -1.057,7.889 -2.26,9.973 -1.2,2.073 -2.931,3.739 -4.524,4.987 -0.733,0.572 -1.152,0.61 -1.811,0.906 -0.166,0.076 -0.247,0.81 -0.449,0.906 -0.564,0.265 -1.631,0.144 -2.717,0.454 -0.968,0.277 -1.888,0.817 -2.712,0.907 -4.45,0.486 -7.906,-1.08 -9.949,-2.267 -2.018,-1.169 -3.776,-2.994 -4.977,-4.533 -0.57,-0.732 -0.607,-1.155 -0.905,-1.813 -0.074,-0.168 -0.806,-0.247 -0.906,-0.454 -0.202,-0.434 -0.206,-1.408 -0.448,-2.266 -0.24,-0.84 -0.807,-1.58 -0.907,-2.267 -0.287,-1.941 0.358,-4.857 0.454,-5.44 0.809,-4.996 3.393,-8.983 7.236,-11.332 m -0.905,131.916 c 2.182,-1.335 6.897,-2.725 10.854,-2.267 1.602,0.185 5.031,1.773 5.882,2.267 2.072,1.205 3.758,2.972 4.973,4.532 0.57,0.732 0.611,1.157 0.905,1.813 0.074,0.168 0.806,0.247 0.906,0.454 0.25,0.537 0.198,1.836 0.452,2.721 0.306,1.083 0.807,1.84 0.903,2.718 0.481,4.441 -1.057,7.89 -2.261,9.974 -1.196,2.073 -2.93,3.739 -4.524,4.986 -0.728,0.574 -1.152,0.611 -1.807,0.908 -0.169,0.075 -0.246,0.81 -0.452,0.905 -0.564,0.264 -1.627,0.144 -2.717,0.454 -0.968,0.277 -1.888,0.817 -2.713,0.908 -4.449,0.485 -7.902,-1.081 -9.949,-2.267 -2.017,-1.169 -3.777,-2.994 -4.976,-4.534 -0.571,-0.732 -0.607,-1.155 -0.906,-1.813 -0.073,-0.168 -0.806,-0.247 -0.901,-0.454 -0.207,-0.434 -0.21,-1.407 -0.454,-2.265 -0.239,-0.842 -0.801,-1.581 -0.905,-2.267 -0.287,-1.943 0.358,-4.859 0.453,-5.44 0.81,-4.997 3.394,-8.985 7.237,-11.333 M 456.687,71.533 c 0.231,-1.009 1.814,-4.325 2.263,-4.987 0.803,-1.187 2.433,-2.148 3.165,-2.719 1.2,-0.937 1.098,-1.471 2.713,-2.266 2.621,-1.292 8.014,-2.25 11.308,-1.361 1.026,0.277 4.534,1.967 4.976,2.268 1.185,0.805 2.142,2.437 2.713,3.172 0.29,0.375 1.085,0.506 1.358,0.906 0.482,0.712 1.218,3.147 1.807,4.534 0.92,2.169 1.053,6.376 0.453,8.612 -0.291,1.082 -2.036,4.657 -2.26,4.988 -0.806,1.187 -2.433,2.146 -3.169,2.717 -1.189,0.933 -1.137,1.492 -2.713,2.269 -2.639,1.302 -7.973,2.259 -11.307,1.359 -1.067,-0.288 -4.454,-1.912 -4.976,-2.265 -1.182,-0.808 -2.143,-2.439 -2.713,-3.175 -0.291,-0.375 -1.086,-0.507 -1.355,-0.905 -0.309,-0.456 -0.412,-1.637 -0.905,-2.721 -0.376,-0.817 -1.149,-1.481 -1.358,-2.267 -0.46,-1.732 -0.056,-4.872 0,-5.44 0.084,-0.867 -0.192,-1.87 0,-2.719 m -0.906,131.916 c 0.232,-1.009 1.815,-4.326 2.264,-4.985 0.806,-1.189 2.433,-2.15 3.165,-2.722 1.2,-0.936 1.097,-1.47 2.713,-2.266 2.621,-1.291 8.013,-2.248 11.307,-1.36 1.027,0.278 4.535,1.966 4.977,2.267 1.185,0.807 2.142,2.438 2.712,3.172 0.291,0.377 1.086,0.508 1.358,0.909 0.483,0.711 1.223,3.146 1.808,4.531 0.92,2.169 1.053,6.377 0.452,8.614 -0.29,1.081 -2.035,4.657 -2.26,4.987 -0.805,1.187 -2.432,2.146 -3.165,2.72 -1.192,0.929 -1.141,1.49 -2.716,2.265 -2.639,1.302 -7.973,2.259 -11.308,1.361 -1.067,-0.289 -4.453,-1.913 -4.973,-2.266 -1.184,-0.809 -2.141,-2.44 -2.716,-3.173 -0.291,-0.376 -1.086,-0.507 -1.354,-0.907 -0.31,-0.456 -0.412,-1.637 -0.906,-2.722 -0.371,-0.817 -1.148,-1.48 -1.358,-2.265 -0.46,-1.734 -0.052,-4.871 0,-5.44 0.084,-0.868 -0.191,-1.872 0,-2.72 m -0.902,134.636 c 0.092,-2.794 0.578,-3.273 1.354,-4.987 1.764,-3.881 3.656,-5.509 6.785,-7.252 1.523,-0.847 2.311,-1.573 3.622,-1.815 7.239,-1.333 11.119,1.176 14.472,4.534 1.491,1.495 3.464,3.623 4.071,5.44 0.902,2.708 1.13,7.48 0,10.879 -0.121,0.364 -0.862,0.916 -1.358,1.814 -1.841,3.32 -3.559,4.801 -6.331,6.347 -1.373,0.764 -2.404,1.59 -3.618,1.813 -5.051,0.93 -10.17,-0.848 -12.666,-2.721 -3.379,-2.533 -6.783,-7.155 -6.783,-12.692 0,-0.31 0.452,-0.494 0.452,-0.454 0.015,-0.301 -0.011,-0.605 0,-0.906 m 8.139,118.316 c 4.748,-1.889 10.011,-1.056 12.665,0 3.309,1.316 7.082,5.487 8.142,8.16 1.638,4.139 1.274,9.475 0,12.693 -1.266,3.198 -5.592,7.146 -8.142,8.159 -3.843,1.528 -9.147,1.4 -12.665,0 -1.716,-0.683 -3.148,-2.251 -4.521,-3.626 -3.618,-3.623 -5.466,-7.795 -4.07,-14.507 1.284,-6.18 6.338,-9.982 8.591,-10.879 m -3.166,133.729 c 0.95,-0.59 2.922,-2.042 3.618,-2.267 5.068,-1.638 10.608,0.269 13.119,1.813 3.265,2.011 6.617,6.215 7.236,9.974 1.954,11.868 -8.392,20.264 -18.544,18.585 -2.363,-0.39 -6.64,-2.772 -8.594,-4.985 -1.171,-1.328 -1.892,-3.311 -2.26,-4.534 -0.052,-0.171 -0.828,-0.67 -0.906,-0.907 -0.714,-2.184 -0.313,-6.492 0,-8.159 0.935,-4.983 3.401,-7.693 6.331,-9.52 M 447.643,27.107 c 2.904,-3.473 5.75,-5.6 11.307,-5.893 5.558,-0.294 8.583,2.259 10.855,4.534 2.584,2.59 4.292,5.565 4.519,9.974 0.141,2.655 -0.809,4.955 -1.354,6.344 -0.964,2.464 -1.447,2.81 -3.165,4.535 -2.621,2.626 -5.481,4.297 -9.953,4.533 -7.181,0.378 -12.224,-4.477 -14.02,-9.068 -0.891,-2.276 -1.329,-5.231 -0.905,-8.158 0.5,-3.449 1.324,-5.137 2.716,-6.801 m 4.972,127.384 c 10.896,-4.228 20.355,4.504 20.355,13.599 0,8.196 -7.177,15.151 -15.378,14.96 -3.508,-0.083 -8.131,-1.833 -10.855,-4.988 -1.439,-1.664 -3.383,-5.658 -3.618,-10.879 -0.022,-0.47 0.431,-0.758 0.453,-0.906 0.876,-6.88 4.218,-9.915 9.043,-11.786 m -8.141,136.902 c 0.224,-0.366 1.078,-0.554 1.358,-0.907 0.489,-0.614 0.456,-1.382 0.905,-1.812 0.56,-0.541 1.951,-1.122 3.165,-1.815 2.205,-1.257 4.462,-2.339 7.69,-2.266 7.656,0.173 14.664,7.043 14.472,15.414 -0.22,9.681 -10.74,17.109 -20.354,13.599 -1.362,-0.5 -4.704,-2.874 -5.426,-3.627 -0.346,-0.361 -0.15,-0.925 -0.452,-1.36 -0.258,-0.373 -1.108,-0.513 -1.358,-0.906 -1.635,-2.606 -2.066,-6.851 -1.808,-9.52 0.251,-2.625 0.641,-4.894 1.808,-6.8 m -2.26,135.542 c 0.802,-3.356 5.797,-8.258 7.688,-9.067 3.512,-1.501 10.892,-0.758 12.666,0 2.728,1.168 6.991,6.317 7.69,8.613 1.939,6.399 -0.74,12.527 -3.618,15.414 -1.661,1.661 -4.065,3.209 -5.43,3.626 -6.386,1.948 -12.552,-0.795 -15.378,-3.626 -3.36,-3.37 -4.943,-7.863 -3.618,-14.053 0.062,-0.288 -0.07,-0.621 0,-0.907 m -0.905,132.37 c 0.82,-3.054 3.058,-6.223 4.975,-7.707 0.479,-0.37 1.639,-0.56 2.261,-0.906 0.747,-0.417 1.405,-1.237 1.81,-1.361 7.358,-2.248 12.717,0.962 15.378,3.627 1.197,1.202 3.314,4.438 3.619,5.44 1.961,6.451 -0.898,12.686 -3.619,15.413 -1.107,1.111 -4.494,3.341 -5.428,3.626 -5.316,1.624 -10.178,-0.223 -12.662,-1.813 -4.84,-3.095 -7.863,-7.798 -6.334,-15.413 0.058,-0.287 -0.075,-0.625 0,-0.906 M 459.399,0.814 c -1.314,5.494 -6.087,9.638 -12.209,9.974 -6.537,0.358 -11.65,-3.762 -14.024,-8.612 V 0.814 Z m -24.875,118.77 c 7.549,-9.621 24.875,-5.03 24.875,8.614 0,7.616 -5.941,14.253 -14.472,14.052 -7.182,-0.168 -14.26,-6.172 -13.568,-15.411 0.022,-0.316 0.453,-0.459 0.453,-0.453 0.416,-3.257 0.99,-4.607 2.712,-6.802 m -2.712,134.184 c 0.062,-0.138 0.792,-0.302 0.905,-0.453 0.28,-0.377 0.218,-1.024 0.449,-1.362 1.8,-2.588 4.874,-4.664 8.143,-5.439 9.65,-2.286 17.361,6.011 17.188,14.053 -0.162,7.497 -6.812,13.601 -14.023,13.601 -3.479,0 -8.235,-2.154 -10.403,-4.534 -0.319,-0.352 -0.508,-1.217 -0.905,-1.814 -0.375,-0.562 -1.248,-1.125 -1.354,-1.359 -0.92,-1.981 -1.057,-6.287 -0.906,-7.707 0.196,-1.857 0.335,-3.725 0.906,-4.986 m -1.359,133.73 c 0.526,-1.752 1.999,-3.181 2.713,-4.081 0.604,-0.758 0.497,-1.437 0.905,-1.813 0.126,-0.114 0.818,-0.395 0.907,-0.454 0.382,-0.254 0.591,-0.71 0.905,-0.907 2.771,-1.754 8.855,-2.57 12.209,-1.359 6.169,2.224 11.447,9.735 8.595,17.68 -2.72,7.581 -12.578,12 -20.352,7.252 -0.945,-0.577 -2.197,-1.296 -2.716,-1.813 -0.349,-0.352 -0.151,-0.927 -0.453,-1.359 -0.258,-0.373 -1.107,-0.513 -1.354,-0.908 -1.823,-2.901 -2.19,-7.719 -1.359,-11.333 0.067,-0.282 -0.084,-0.629 0,-0.905 m -0.905,131.915 c 0.832,-3.481 5.426,-7.839 7.236,-8.614 3.287,-1.405 9.943,-0.778 11.761,0 1.991,0.851 5.996,4.945 6.787,6.8 1.232,2.903 1.09,8.328 0.449,10.427 -0.67,2.208 -2.157,3.524 -3.618,4.986 -1.31,1.315 -2.496,2.694 -3.618,3.174 -2.827,1.209 -8.559,1.369 -11.761,0 -1.303,-0.559 -2.462,-2.016 -3.618,-3.174 -3.242,-3.25 -4.848,-6.811 -3.618,-12.693 0.062,-0.288 -0.067,-0.621 0,-0.906 m 16.736,122.848 c 2.201,0.672 3.354,2.002 4.977,3.627 1.708,1.714 3.095,3.265 3.618,4.987 0.736,2.428 0.682,5.606 0,8.613 h -26.233 c -3.099,-11.56 7.133,-20.431 17.638,-17.227 M 426.835,77.427 c 8.308,-4.3 18.997,1.507 18.997,11.333 0,7.066 -6.269,13.146 -13.115,13.146 -3.902,0 -8.974,-2.712 -10.405,-5.894 -0.071,-0.158 -0.795,-0.267 -0.904,-0.453 -1.308,-2.269 -1.591,-6.058 -1.356,-8.162 0.614,-5.54 3.217,-8.126 6.783,-9.97 m -5.878,135.088 c 1.097,-1.15 1.671,-1.794 2.713,-2.267 0.14,-0.062 0.294,-0.793 0.452,-0.905 2.728,-1.967 9.435,-2.502 13.115,-0.907 0.427,0.183 0.71,0.895 1.359,1.36 0.514,0.371 1.457,0.566 1.806,0.906 2.861,2.748 4.686,9.049 3.17,14.054 -0.39,1.275 -1.097,1.722 -1.811,2.719 -0.372,0.518 -0.567,1.459 -0.906,1.813 -1.089,1.142 -4.085,2.903 -4.972,3.174 -4.487,1.366 -10.001,-0.175 -12.213,-1.814 -0.685,-0.508 -1.605,-1.145 -1.812,-1.36 -0.279,-0.294 -2.222,-3.088 -2.259,-3.173 -1.055,-2.444 -1.053,-6.292 -0.453,-9.066 0.446,-2.057 1.014,-3.7 1.811,-4.534 m 1.355,129.651 c 1.167,-0.777 4.335,-2.596 4.976,-2.721 1.388,-0.273 4.969,-0.273 6.331,0 3.96,0.795 8.782,5.868 9.5,9.519 0.854,4.361 -0.578,7.353 -1.81,9.52 -0.995,1.752 -1.473,2.615 -2.713,3.173 -0.141,0.063 -0.295,0.795 -0.453,0.907 -7.48,5.389 -17.164,0.773 -19.903,-5.893 -0.831,-2.028 -0.298,-6.38 0,-7.707 0.647,-2.864 2.596,-5.817 4.072,-6.798 m -4.975,138.261 c 0.793,-3.319 4.728,-7.28 6.785,-8.16 3,-1.284 8.805,-0.877 10.856,0 0.872,0.374 2.719,1.821 3.618,2.72 3.304,3.312 4.641,9.976 2.713,14.507 -0.347,0.816 -1.731,2.64 -2.713,3.626 -2.482,2.487 -6.637,4.29 -11.308,3.627 -3.957,-0.562 -8.507,-4.925 -9.498,-7.253 -1.029,-2.415 -0.977,-5.529 -0.453,-8.161 0.058,-0.289 -0.068,-0.619 0,-0.906 m 5.428,124.21 c 1.548,-0.764 3.146,-1.25 4.976,-1.361 7.56,-0.455 11.572,4.462 13.114,9.52 1.682,5.512 -1.972,11.806 -4.52,13.6 -0.891,0.624 -2.926,1.323 -4.523,1.813 -6.151,1.884 -12.478,-2.28 -14.475,-6.347 -1.174,-2.393 -1.33,-5.73 -0.903,-8.159 0.838,-4.792 3.535,-7.688 6.331,-9.066 m -9.95,-565.289 c 0.157,-0.073 0.265,-0.799 0.453,-0.909 2.794,-1.619 8.786,-1.589 10.854,-0.905 0.909,0.301 3.077,1.725 4.071,2.719 4.392,4.404 3.814,13.406 0,17.226 -2.756,2.761 -8.12,4.372 -13.118,2.721 -0.857,-0.284 -2.463,-1.496 -3.165,-1.813 -0.971,-0.439 -1.568,-2.182 -1.809,-2.721 -0.072,-0.156 -0.797,-0.268 -0.904,-0.453 -1.379,-2.388 -1.612,-6.467 -0.906,-9.52 0.877,-3.793 2.677,-5.511 4.524,-6.345 m -3.618,134.182 c 0.775,-1.138 1.66,-1.494 2.713,-2.266 0.535,-0.394 1.432,-1.396 1.358,-1.361 1.447,-0.671 6.34,-1.237 8.14,-0.907 1.787,0.33 2.818,1.345 4.069,2.268 1.627,1.194 1.701,1.333 2.716,2.72 1.142,1.557 1.484,1.644 1.808,2.718 0.121,0.396 0.441,1.292 0.452,1.36 0.825,4.503 -0.938,7.71 -2.26,9.52 -1.273,1.741 -1.273,1.66 -2.716,2.721 -1.472,1.083 -1.697,1.503 -2.712,1.813 -0.395,0.119 -1.289,0.441 -1.357,0.453 -4.417,0.813 -7.685,-0.934 -9.498,-2.266 -1.597,-1.173 -1.705,-1.343 -2.713,-2.721 -1.976,-2.7 -2.556,-6.002 -1.811,-9.52 0.449,-2.107 1.056,-3.425 1.811,-4.532 m 2.713,128.743 c 4.801,-2.61 9.728,-1.105 11.76,0 5.204,2.829 7.553,10.715 4.523,16.32 -1.906,3.524 -5.863,5.607 -9.047,5.892 -2.735,0.245 -5.188,-0.772 -6.331,-1.359 -0.607,-0.312 -1.268,-0.079 -1.811,-0.454 -1.022,-0.706 -3.143,-3.201 -3.618,-4.079 -1.087,-2.014 -1.362,-5.655 -0.904,-8.161 0.897,-4.899 4.36,-7.579 5.428,-8.159 m -1.358,132.369 c 0.162,-0.073 0.261,-0.802 0.452,-0.907 0.605,-0.333 1.175,-0.221 1.811,-0.453 7.616,-2.782 15.831,2.469 15.831,10.88 0,6.217 -4.836,11.786 -11.76,11.786 -6.411,0 -12.326,-5.129 -11.76,-13.147 0.022,-0.331 0.449,-0.438 0.453,-0.453 0.581,-3.935 2.442,-6.563 4.973,-7.706 m -2.713,132.822 c 1.645,-1.53 5.838,-3.264 8.595,-3.173 4.067,0.133 7.656,3.139 9.043,5.44 1.056,1.745 2.337,4.495 2.264,6.799 -0.095,2.862 -2.007,6.662 -3.619,8.16 -0.776,0.721 -2.296,1.265 -3.618,1.814 -3.691,1.533 -5.631,1.424 -9.047,0 -4.454,-1.858 -6.539,-4.842 -7.236,-10.427 -0.059,-0.475 0.439,-0.768 0.452,-0.906 0.302,-3.316 1.594,-6.244 3.166,-7.707 m -0.453,92.024 c -3.471,-0.299 -8.134,0.599 -10.855,-0.452 3.225,-1.452 8.241,-1.902 10.855,0.452 m -0.452,-639.18 c -6.335,0 -11.474,-5.865 -10.855,-12.241 0.235,-2.411 1.783,-6.321 4.976,-7.253 4.027,-1.172 7.796,0.878 12.664,0 7.818,7.092 3.083,19.494 -6.785,19.494 m -6.785,112.421 c 0.163,-0.071 0.262,-0.798 0.454,-0.905 0.605,-0.334 1.173,-0.219 1.808,-0.453 7.182,-2.647 14.475,2.824 14.475,9.973 0,4.687 -3.912,10.88 -10.857,10.88 -3.763,0 -7.547,-2.664 -8.592,-4.986 -0.074,-0.162 -0.8,-0.26 -0.906,-0.454 -1.038,-1.917 -1.229,-4.331 -0.905,-6.8 0.533,-4.029 2.297,-6.247 4.523,-7.255 m -0.452,131.011 c 0.927,-0.479 1.468,-1.204 2.264,-1.359 5.988,-1.168 10.218,2.145 11.758,4.985 3.101,5.72 0.239,12.407 -3.618,14.507 -5.697,3.102 -12.38,0.239 -14.475,-3.627 -1.244,-2.297 -1.465,-5.626 -0.903,-8.159 0.798,-3.597 2.39,-5.009 4.974,-6.347 m 2.264,130.556 c 8.021,-1.071 13.424,5.363 12.211,12.693 -0.971,5.857 -7.301,9.051 -12.664,8.16 -3.756,-0.623 -7.586,-4.425 -8.142,-8.614 -0.224,-1.689 0.352,-4.109 0.452,-4.532 1.02,-4.299 4.241,-7.186 8.143,-7.707 m 1.354,131.916 c 6.769,0.241 9.953,5.441 9.953,10.427 0,4.97 -4.13,10.665 -10.857,10.426 -6.005,-0.214 -10.091,-4.75 -9.95,-10.879 0.018,-0.839 0.379,-1.452 0.452,-1.814 1.034,-5.115 4.987,-8.352 10.402,-8.16 M 384.771,96.466 c 0.365,-0.66 1.913,-2.034 2.264,-2.267 0.359,-0.239 0.614,-0.74 0.902,-0.907 4.001,-2.331 10.317,-0.6 12.212,2.267 0.235,0.352 0.747,0.628 0.906,0.907 2.326,4.123 0.681,10.282 -2.262,12.239 -0.352,0.233 -0.624,0.746 -0.903,0.907 -4.053,2.298 -10.347,0.554 -12.213,-2.266 -1.27,-1.921 -1.997,-3.835 -1.81,-6.348 0.218,-2.916 0.201,-3.254 0.904,-4.532 m 1.359,130.103 c 2.06,-1.821 5.023,-3.111 8.593,-2.267 0.119,0.028 0.722,0.813 0.903,0.906 0.607,0.311 1.27,0.079 1.811,0.453 1.495,1.038 2.334,2.804 2.712,3.627 0.192,0.416 0.83,1.039 0.906,1.36 0.734,3.123 -0.504,5.56 -0.906,6.346 -0.308,0.605 -0.075,1.278 -0.452,1.814 -2.105,3.001 -6.182,4.624 -10.402,3.626 -0.121,-0.028 -0.725,-0.813 -0.905,-0.907 -0.604,-0.31 -1.271,-0.079 -1.808,-0.453 -1.404,-0.975 -2.328,-2.787 -2.715,-3.626 -0.943,-2.05 -1.352,-3.449 -0.452,-6.8 0.616,-2.294 1.33,-2.858 2.715,-4.079 m 0.905,130.556 c 6.537,-3.303 12.528,2.377 13.114,6.799 0.904,6.794 -4.931,11.42 -10.854,10.426 -3.129,-0.524 -6.685,-4.102 -7.236,-6.8 -0.3,-1.464 0.389,-4.266 0.453,-4.533 0.735,-3.215 2.418,-4.829 4.523,-5.892 m -0.905,131.462 c 6.537,-3.303 12.529,2.379 13.114,6.799 0.905,6.794 -4.931,11.42 -10.854,10.427 -3.127,-0.524 -6.685,-4.104 -7.237,-6.801 -0.299,-1.463 0.392,-4.266 0.452,-4.533 0.737,-3.216 2.419,-4.83 4.525,-5.892 m 3.165,131.009 c 5.534,0 9.223,5.069 9.048,9.519 -0.189,4.72 -4.785,8.801 -9.501,8.614 -4.94,-0.197 -8.808,-4.665 -8.593,-9.973 0.014,-0.358 0.447,-0.415 0.451,-0.454 0.777,-4.93 4.338,-7.706 8.595,-7.706 M 378.893,54.307 c 2.219,-0.275 5.448,0.272 7.237,2.267 2.742,3.054 2.561,8.614 -0.453,11.332 -0.731,0.659 -2.457,1.608 -4.072,1.814 -6.293,0.804 -10.136,-4.012 -8.594,-9.974 0.829,-3.194 3.105,-5.096 5.882,-5.439 m -0.453,131.462 c 5.51,-0.518 8.348,4.181 8.595,6.8 0.375,4.009 -2.663,8.226 -6.786,8.613 -5.655,0.533 -9.436,-3.969 -8.142,-9.52 0.924,-3.964 3.664,-5.641 6.333,-5.893 m -4.976,133.277 c 0.387,-0.259 1.664,-0.863 1.81,-0.907 4.388,-1.32 9.078,1.774 9.95,4.533 1.77,5.595 -2.735,10.643 -7.689,10.426 -4.594,-0.2 -7.126,-4.243 -6.784,-8.159 0.27,-3.103 1.115,-4.831 2.713,-5.893 m 2.264,131.008 c 5.228,-0.746 8.211,3.225 8.59,5.894 0.747,5.254 -3.672,9.701 -9.044,8.613 -2.407,-0.488 -5.075,-3.525 -5.428,-4.987 -0.335,-1.388 -0.155,-2.397 0.453,-4.533 0.934,-3.286 3.542,-4.717 5.429,-4.987 m -0.454,131.917 c 4.188,-0.391 6.818,2.408 7.69,4.533 0.339,0.827 0.424,1.647 0.451,2.266 0.329,7.115 -8.959,10.188 -13.116,4.986 -0.144,-0.178 0.096,-0.692 0,-0.906 -0.074,-0.166 -0.805,-0.252 -0.906,-0.453 -0.784,-1.574 -0.206,-4.12 0,-4.986 0.894,-3.728 3.405,-5.209 5.881,-5.44 M 373.011,24.388 c -0.221,0.795 -2.422,3.293 -3.618,3.627 -5.823,1.627 -9.251,-3.56 -7.689,-8.161 2.429,-7.142 13.457,-3.194 11.307,4.534 m -7.237,123.756 c 5.57,-0.296 6.83,4.268 6.333,7.252 -0.474,2.857 -3.826,5.105 -7.236,4.534 -3.514,-0.586 -5.058,-4.302 -4.071,-7.706 0.923,-3.186 2.818,-3.966 4.974,-4.08 m -0.903,131.916 c 5.569,-0.295 6.83,4.267 6.333,7.253 -0.475,2.858 -3.826,5.103 -7.236,4.533 -3.516,-0.586 -5.058,-4.301 -4.072,-7.706 0.922,-3.184 2.816,-3.966 4.975,-4.08 m -2.715,131.917 c 0.291,-0.107 1.941,-0.459 1.812,-0.454 4.247,-0.149 6.489,3.541 6.331,6.345 -0.175,3.108 -3.641,5.593 -6.331,5.441 -3.376,-0.191 -5.274,-3.727 -4.977,-6.348 0.337,-2.978 1.866,-4.506 3.165,-4.984 m -0.903,132.367 c 6.929,-2.976 9.392,6.006 6.333,9.067 -2.437,2.438 -6.814,1.331 -8.143,0 -0.926,-0.929 -1.758,-3.094 -0.905,-5.893 0.651,-2.131 1.355,-2.589 2.715,-3.174 M 651.624,165.823 c 1.774,0.338 2.459,1.768 4.071,2.267 -0.522,1.891 -1.446,3.382 -2.259,4.986 -1.286,-1.129 -3.619,-1.208 -4.977,-2.266 1.273,-1.445 2.301,-3.135 3.165,-4.987 m -0.901,131.462 c 1.196,1.067 2.572,1.956 4.07,2.722 -0.504,1.763 -1.251,3.278 -2.264,4.531 -1.273,-0.838 -2.819,-1.403 -4.523,-1.812 -0.35,-0.1 -0.523,-0.379 -0.449,-0.907 1.616,-0.947 1.878,-3.254 3.166,-4.534 m -0.453,131.01 c 0.905,1.358 2.617,1.911 4.071,2.719 -0.387,2.183 -1.877,3.258 -2.264,5.441 -2.116,-0.599 -4.111,-1.317 -5.878,-2.267 2.058,-1.262 2.16,-4.484 4.071,-5.893 m -1.359,131.463 c 0.836,1.884 3.464,1.968 4.525,3.626 -0.987,1.43 -2.029,2.804 -2.261,4.987 -2.237,-0.63 -4.27,-1.465 -6.334,-2.267 1.966,-1.505 2.591,-4.355 4.07,-6.346 m -9.948,-436.094 c 1.442,2.182 4.446,2.797 6.33,4.534 -1.962,1.509 -2.293,4.651 -3.618,6.8 -0.946,-0.865 -2.16,-1.462 -3.618,-1.814 -0.994,-0.968 -3.563,-0.358 -4.071,-1.813 2.466,-1.957 3.125,-5.545 4.977,-7.707 m -1.812,131.916 c 2.522,1.403 5.047,2.802 7.237,4.533 -1.653,1.668 -2.683,3.958 -3.165,6.8 -2.846,-0.775 -4.602,-2.638 -8.143,-2.719 0.855,-3.376 3.685,-4.77 4.071,-8.614 m -0.901,131.918 c 2.646,1.121 4.436,3.106 7.236,4.078 -0.353,1.463 -0.946,2.68 -1.811,3.626 -0.567,1.397 -0.493,3.437 -1.807,4.08 -2.186,-1.89 -5.565,-2.584 -8.595,-3.626 2.194,-2.184 3.895,-4.859 4.977,-8.158 m -0.453,131.461 c 1.598,2.176 4.281,3.262 6.784,4.534 -0.604,2.718 -2.533,4.112 -2.713,7.252 -3.346,-1.031 -6.121,-2.629 -9.5,-3.626 2.697,-1.829 3.725,-5.334 5.429,-8.16 M 624.942,82.866 c 1.572,-0.637 2.577,1.768 4.068,2.719 1.663,1.061 3.953,1.127 4.976,2.721 -2.257,2.271 -2.742,6.319 -4.524,9.065 -2.366,-2.613 -6.919,-3.038 -10.401,-4.531 2.621,-2.663 5.079,-5.488 5.881,-9.974 m -0.905,131.462 c 3.279,1.395 5.094,4.261 9.043,4.988 -1.372,3.308 -3.529,5.829 -4.07,9.972 -3.321,-1.659 -6.479,-3.479 -10.855,-4.08 -0.276,-0.025 -0.534,-0.067 -0.453,-0.452 3.121,-2.467 5.47,-5.704 6.335,-10.428 m -0.453,131.01 c 1.348,2.125 3.961,2.981 5.878,4.532 0.979,0.683 2.816,0.506 3.166,1.814 -2.426,2.099 -3.453,5.604 -4.521,9.067 -3.319,-1.66 -6.481,-3.478 -10.854,-4.08 -0.275,-0.025 -0.537,-0.068 -0.452,-0.453 3.5,-2.384 4.769,-7.007 6.783,-10.88 M 622.679,476.8 c 2.157,2.823 5.208,4.755 9.047,5.894 -1.693,3.139 -3.669,5.994 -4.524,9.973 -3.368,-1.31 -5.841,-3.515 -10.401,-3.627 -0.508,-0.096 -0.707,-0.503 -0.906,-0.907 3.378,-2.656 4.745,-7.333 6.784,-11.333 m -1.808,132.37 c 1.119,-0.673 2.482,1.254 3.166,1.813 2.01,1.644 4.137,3.02 6.783,3.626 -0.651,1.801 -1.84,3.081 -2.713,4.987 -0.787,1.717 -0.997,3.914 -2.263,5.44 -2.433,-2.397 -5.83,-3.826 -10.402,-4.08 -0.004,-0.599 -0.792,-0.414 -0.905,-0.907 2.984,-2.752 5.352,-6.121 6.334,-10.879 M 612.276,40.707 c 2.651,3.387 6.693,5.381 10.856,7.253 -2.515,2.768 -4.329,6.239 -4.977,10.881 -4.012,-1.87 -7.067,-4.704 -13.115,-4.534 -0.353,-0.099 -0.526,-0.38 -0.452,-0.908 3.986,-2.801 5.808,-7.778 7.688,-12.692 m -0.905,131.011 c 2.625,3.716 6.814,5.863 11.308,7.706 -2.857,3.029 -4.38,7.393 -5.878,11.785 -3.108,-3.234 -8.168,-4.507 -13.572,-5.44 4.255,-3.141 6.633,-8.161 8.142,-14.051 m -4.07,139.621 c 1.309,-2.248 1.895,-4.843 3.165,-7.253 2.653,3.234 5.967,5.81 10.854,6.8 -1.87,3.866 -4.722,6.749 -4.972,12.24 -4.447,-2.043 -7.774,-5.204 -14.473,-4.987 -0.276,-0.026 -0.537,-0.067 -0.453,-0.454 2.654,-1.505 4.413,-3.83 5.879,-6.346 m 1.357,125.116 c 1.105,-0.676 1.918,0.753 2.713,1.359 2.857,2.178 5.942,4.27 9.5,5.441 -2.767,3.12 -4.803,6.972 -5.429,12.24 -2.201,-1.106 -4.001,-2.642 -6.331,-3.628 -2.326,-0.981 -4.822,-1.802 -8.141,-1.813 -0.277,-0.026 -0.538,-0.067 -0.453,-0.453 3.861,-3.231 7.427,-6.76 8.141,-13.146 m -4.07,140.075 c 1.973,-2.775 2.72,-6.08 4.07,-9.52 2.596,3.896 7.178,5.803 11.761,7.707 -3.063,2.976 -4.977,7.102 -5.882,12.24 -2.183,-0.824 -3.678,-2.674 -5.879,-3.627 -2.3,-0.995 -4.958,-1.538 -8.141,-1.813 -0.277,-0.026 -0.538,-0.067 -0.454,-0.453 1.631,-1.335 3.295,-2.804 4.525,-4.534 m -7.236,-314.149 c 2.557,4.84 8.156,6.631 13.114,9.066 -3.802,2.987 -5.352,8.237 -6.784,13.6 -3.397,-4.162 -10.751,-6.227 -16.733,-6.348 5.945,-2.956 8.672,-9.137 10.403,-16.318 m -1.359,131.008 c 2.86,4.991 8.385,7.312 14.02,9.52 -3.556,3.386 -5.949,7.939 -6.784,14.052 -0.883,0.274 -1.524,-0.761 -2.259,-1.358 -3.84,-3.117 -9.346,-4.961 -15.831,-4.987 6.419,-2.935 9.315,-9.399 10.854,-17.227 m -0.905,131.463 c 1.093,2.249 3.08,3.985 4.975,5.44 2.677,2.053 5.894,2.965 9.048,4.534 -3.853,3.088 -5.79,8.1 -6.784,14.052 -0.893,0.241 -1.608,-0.829 -2.264,-1.36 -3.919,-3.182 -9.448,-4.97 -16.283,-4.987 6.471,-3.184 9.821,-9.499 11.308,-17.679 m -61.963,-92.023 c 1.527,-1.801 2.724,-2.983 4.523,-4.08 0.766,-0.47 2.091,-1.408 3.166,-1.814 2.301,-0.871 10.406,-1.055 11.308,-0.906 3.136,0.516 6.444,2.703 8.142,4.079 2.348,1.907 5.378,5.625 6.331,8.161 1.365,3.629 1.034,11.147 0,14.052 -2.746,7.697 -10.954,14.613 -22.616,12.693 0.66,0.108 -0.25,-0.024 -2.711,-0.907 -3.299,-1.18 -6.704,-3.996 -7.238,-4.533 -2.329,-2.335 -3.489,-4.697 -4.523,-7.707 -0.843,-2.448 -1.049,-7.168 -0.452,-10.426 0.768,-4.218 2.278,-6.498 4.07,-8.612 m -0.905,131.462 c 1.527,-1.801 2.727,-2.982 4.523,-4.08 0.77,-0.469 2.091,-1.407 3.166,-1.813 2.304,-0.871 10.405,-1.055 11.307,-0.906 3.139,0.516 6.445,2.703 8.142,4.079 2.348,1.907 5.377,5.625 6.331,8.16 1.366,3.63 1.038,11.148 0,14.053 -2.742,7.695 -10.951,14.612 -22.615,12.693 0.659,0.108 -0.25,-0.025 -2.713,-0.908 -3.294,-1.179 -6.702,-3.995 -7.236,-4.532 -2.33,-2.335 -3.489,-4.697 -4.523,-7.707 -0.843,-2.448 -1.045,-7.168 -0.454,-10.426 0.774,-4.218 2.279,-6.499 4.072,-8.613 M 556.192,17.588 c -1.567,4.077 -7.132,9.443 -10.854,10.881 -8.219,3.17 -16.932,-0.653 -20.808,-4.535 -1.917,-1.921 -3.883,-4.602 -4.523,-6.346 -1.852,-5.059 -1.038,-13.629 1.358,-16.774 h 33.469 c 3.041,5.824 2.985,12.54 1.358,16.774 m -33.921,112.877 c 1.141,-1.481 1.1,-1.743 2.259,-2.267 0.133,-0.06 0.306,-0.795 0.453,-0.907 1.594,-1.224 3.515,-2.636 4.977,-3.174 4.711,-1.731 9.327,-1.209 11.308,-0.907 -0.233,-0.035 2.742,0.753 3.165,0.907 1.774,0.654 3.798,2.25 4.976,3.174 2.212,1.739 5.054,5.455 5.878,7.707 3.107,8.489 -0.508,16.827 -4.523,20.853 -4.421,4.431 -12.806,7.473 -20.804,4.533 -2.484,-0.913 -5.565,-3.763 -6.335,-4.533 -1.332,-1.338 -2.904,-3.277 -3.618,-4.534 -1.59,-2.804 -2.643,-6.879 -1.808,-12.693 0.045,-0.303 0.449,-0.443 0.453,-0.452 0.737,-4.034 1.966,-5.568 3.619,-7.707 m -4.977,528.571 c 0.424,-0.783 1.527,-1.839 1.811,-2.267 0.891,-1.351 2.26,-2.572 3.166,-3.175 1.221,-0.812 2.23,-1.197 3.618,-1.813 0.22,-0.097 0.618,-0.819 0.905,-0.906 0.553,-0.169 1.252,0.161 1.808,0 1.027,-0.295 1.777,-0.808 2.712,-0.907 6.769,-0.719 11.381,2.003 14.477,4.534 1.781,1.459 3.323,2.905 4.067,4.986 -10.704,-0.301 -22.611,0.604 -32.564,-0.452 m 2.713,-395.296 c 1.288,-2.225 4.163,-5.211 5.882,-6.346 0.412,-0.274 1.001,-0.233 1.354,-0.453 1.153,-0.717 1.528,-0.892 3.169,-1.361 6.445,-1.835 13.277,-0.209 16.734,2.267 1.825,1.307 3.838,2.999 4.976,4.534 0.371,0.506 0.144,1.269 0.452,1.813 0.443,0.788 1.244,1.107 1.355,1.36 0.217,0.49 0.203,1.38 0.453,2.266 1.77,6.238 0.258,13.244 -2.26,16.773 -1.304,1.828 -3.008,3.861 -4.524,4.986 -0.504,0.376 -1.266,0.146 -1.807,0.454 -0.777,0.439 -0.95,1.178 -1.358,1.36 -0.49,0.214 -1.377,0.2 -2.264,0.453 -0.722,0.206 -1.605,0.806 -2.26,0.908 -6.482,0.99 -11.698,-1.185 -14.473,-3.175 -1.844,-1.32 -3.865,-3.028 -4.976,-4.532 -0.372,-0.505 -0.144,-1.27 -0.453,-1.814 -0.379,-0.674 -1.2,-1.004 -1.355,-1.36 -0.162,-0.367 -0.257,-1.572 -0.453,-2.266 -0.71,-2.504 -0.941,-6.638 -0.452,-9.52 0.523,-3.066 1.48,-4.99 2.26,-6.347 m 8.141,124.21 c 2.967,-1.218 9.196,-1.82 12.666,-0.906 2.622,0.69 6.438,3.091 8.595,5.439 2.33,2.539 4.49,6.567 4.973,9.52 1.299,7.925 -1.542,12.472 -4.973,16.319 -2.26,2.532 -5.355,5.04 -8.595,5.893 -11.101,2.92 -18.831,-3.489 -22.162,-9.519 -0.46,-0.828 -1.082,-1.535 -1.358,-2.267 -1.012,-2.693 -0.854,-8.229 -0.452,-10.426 1.295,-7.09 5.749,-11.772 11.306,-14.053 m -7.236,136.449 c 2.908,-2.968 6.346,-5.365 11.308,-5.893 1.188,-0.127 5.54,0.066 4.976,0 8.458,0.999 15.455,8.974 16.281,16.772 0.176,1.638 0.183,3.45 0,4.987 -0.899,7.64 -7.705,15.358 -16.734,16.32 -4.821,0.514 -8.708,-0.58 -11.76,-2.267 -0.795,-0.44 -0.979,-1.175 -1.807,-1.813 -0.383,-0.294 -1.016,-0.19 -1.358,-0.454 -0.574,-0.44 -1.564,-1.492 -1.811,-1.813 -0.287,-0.377 -0.148,-0.96 -0.452,-1.36 -0.538,-0.703 -1.418,-1.14 -1.808,-1.813 -0.755,-1.304 -1.575,-3.478 -1.811,-4.534 -0.541,-2.449 -0.298,-6.305 0,-8.159 0.832,-5.158 2.517,-7.463 4.976,-9.973 M 506.439,98.28 c 0.818,-3.907 2.128,-5.245 3.619,-7.255 0.534,-0.719 0.821,-1.749 1.358,-2.265 0.501,-0.484 1.579,-0.881 2.26,-1.363 2.521,-1.777 4.652,-3.186 8.595,-3.626 11.583,-1.289 19.802,7.272 20.803,16.322 0.947,8.537 -3.445,14.234 -7.689,17.226 -3.228,2.275 -8.227,4.317 -13.567,3.626 -3.085,-0.4 -9.416,-3.938 -10.855,-5.44 -0.232,-0.242 -0.718,-1.354 -1.358,-2.267 -1.355,-1.928 -2.05,-3.105 -2.712,-5.438 -0.266,-0.939 -0.807,-1.606 -0.907,-2.268 -0.283,-1.924 0.343,-5.676 0.453,-6.346 0.048,-0.292 -0.062,-0.618 0,-0.906 m 1.359,126.476 c 1.664,-2.882 4.6,-5.528 7.236,-6.801 10.112,-4.88 21.132,-0.607 25.327,8.16 2.293,4.79 2.025,12.093 0,16.319 -3.93,8.215 -15.175,13.277 -24.874,8.614 -2.742,-1.318 -6.129,-4.549 -7.689,-7.252 -0.464,-0.801 -1.138,-1.71 -1.359,-2.269 -1.21,-3.072 -1.346,-6.85 -0.905,-9.972 0.452,-3.194 1.284,-5.109 2.264,-6.799 m -0.905,131.915 c 1.663,-2.881 4.6,-5.528 7.236,-6.801 10.111,-4.878 21.131,-0.606 25.327,8.161 2.293,4.792 2.024,12.093 0,16.319 -3.931,8.215 -15.176,13.276 -24.875,8.614 -2.742,-1.317 -6.128,-4.549 -7.688,-7.253 -0.464,-0.799 -1.138,-1.71 -1.359,-2.267 -1.211,-3.073 -1.347,-6.851 -0.905,-9.973 0.452,-3.194 1.284,-5.108 2.264,-6.8 m -1.812,131.916 c 0.343,-0.63 1.223,-1.045 1.812,-1.814 0.29,-0.383 0.187,-1.015 0.452,-1.36 0.438,-0.576 1.487,-1.567 1.807,-1.813 0.379,-0.288 0.961,-0.147 1.359,-0.454 0.82,-0.629 1.134,-1.445 1.806,-1.813 11.923,-6.507 27.592,2.077 27.592,16.32 0,8.816 -7.263,18.586 -18.544,18.586 -3.335,0 -6.283,-0.758 -9.048,-2.266 -0.625,-0.343 -0.949,-1.156 -1.806,-1.813 -0.383,-0.294 -1.013,-0.191 -1.359,-0.454 -1.52,-1.166 -4.011,-4.795 -4.523,-5.893 -1.16,-2.492 -2.062,-5.315 -1.808,-9.52 0.019,-0.31 0.453,-0.47 0.453,-0.453 0.29,-2.729 1.06,-5.876 1.807,-7.253 m -0.901,131.916 c 0.341,-0.63 1.217,-1.045 1.806,-1.813 0.295,-0.384 0.189,-1.015 0.453,-1.361 0.439,-0.576 1.488,-1.568 1.808,-1.813 0.379,-0.288 0.96,-0.147 1.358,-0.453 0.821,-0.63 1.137,-1.446 1.811,-1.813 11.918,-6.508 27.588,2.076 27.588,16.319 0,8.815 -7.263,18.586 -18.544,18.586 -3.335,0 -6.283,-0.758 -9.044,-2.267 -0.63,-0.342 -0.953,-1.155 -1.811,-1.814 -0.382,-0.293 -1.012,-0.188 -1.358,-0.451 -1.52,-1.166 -4.009,-4.796 -4.52,-5.894 -1.16,-2.492 -2.061,-5.314 -1.811,-9.52 0.019,-0.31 0.456,-0.47 0.452,-0.453 0.291,-2.729 1.061,-5.877 1.812,-7.253 M 494.227,57.479 c 0.162,-0.6 0.713,-0.9 0.905,-1.359 0.291,-0.697 0.022,-1.482 0.453,-2.266 0.092,-0.171 0.769,-0.272 0.905,-0.455 0.298,-0.396 0.173,-1.005 0.449,-1.36 0.166,-0.208 0.718,-0.25 0.906,-0.453 0.291,-0.314 0.151,-1.05 0.453,-1.359 0.387,-0.399 1.6,-0.847 2.264,-1.36 0.798,-0.621 1.328,-1.551 1.806,-1.813 1.421,-0.781 6.622,-2.333 9.501,-2.267 2.393,0.056 6.96,1.369 8.591,2.267 0.173,0.093 0.272,0.771 0.452,0.906 0.401,0.301 1.005,0.171 1.359,0.453 3.356,2.673 5.219,5.661 6.331,9.974 3.607,14.015 -9.04,25.353 -22.163,21.759 -1.298,-0.356 -2.877,-0.704 -4.071,-1.361 -0.169,-0.094 -0.271,-0.769 -0.452,-0.907 -0.397,-0.3 -1.001,-0.169 -1.354,-0.451 -0.564,-0.448 -1.303,-1.307 -1.812,-1.814 -1.115,-1.119 -2.359,-2.488 -3.165,-3.626 -0.905,-1.28 -0.932,-3.222 -1.358,-4.988 -0.365,-1.514 -0.666,-2.788 -0.906,-4.531 -0.062,-0.476 0.442,-0.772 0.453,-0.907 0.169,-1.977 0.195,-3.114 0.453,-4.082 m 3.166,125.571 c 1.276,-1.41 1.928,-2.16 3.169,-2.72 0.154,-0.071 0.264,-0.799 0.449,-0.906 1.229,-0.712 2.539,-0.995 3.618,-1.362 0.518,-0.175 1.35,-0.81 1.81,-0.906 4.948,-1.036 9.725,0.618 12.666,2.268 3.486,1.957 5.021,3.644 6.784,6.799 0.89,1.597 1.958,3.087 2.259,4.534 1.05,5.023 -0.551,9.636 -2.259,12.692 -0.818,1.463 -1.579,2.942 -2.713,4.08 -1.141,1.144 -2.587,1.887 -4.071,2.719 -1.597,0.897 -3.154,1.981 -4.524,2.267 -4.299,0.9 -8.708,-0.184 -11.307,-1.36 -5.544,-2.505 -10.854,-8.475 -10.854,-16.318 0,-0.306 0.452,-0.5 0.452,-0.454 0.243,-5.779 2.08,-8.633 4.521,-11.333 m 1.81,128.743 c 1.207,-0.893 2.536,-1.87 3.618,-2.267 5.367,-1.974 10.763,-1.032 13.568,0 1.637,0.601 4.217,2.411 5.882,4.08 1.564,1.568 3.416,4.11 4.071,5.894 2.116,5.78 0.485,13.334 -1.812,16.772 -1.77,2.649 -5.753,5.921 -8.141,6.799 -6.055,2.226 -13.354,0.456 -16.733,-1.813 -5.355,-3.595 -8.867,-9.658 -7.236,-18.586 0.986,-5.409 3.702,-8.609 6.783,-10.879 m -0.905,131.915 c 1.211,-0.891 2.536,-1.869 3.618,-2.267 5.366,-1.973 10.763,-1.031 13.571,0 1.634,0.602 4.214,2.412 5.878,4.08 1.565,1.569 3.419,4.11 4.071,5.894 2.117,5.781 0.49,13.335 -1.811,16.773 -1.771,2.649 -5.753,5.921 -8.138,6.799 -6.058,2.226 -13.358,0.455 -16.737,-1.813 -5.355,-3.596 -8.866,-9.658 -7.236,-18.586 0.986,-5.41 3.703,-8.609 6.784,-10.88 m -5.878,137.356 c 0.36,-0.379 0.533,-0.975 0.901,-1.36 0.298,-0.31 0.162,-0.535 0.453,-0.907 1.561,-1.986 3.788,-3.058 5.429,-4.08 0.928,-0.578 1.193,-0.583 2.26,-0.906 0.692,-0.21 2.061,-1.25 2.717,-1.36 13.526,-2.283 23.281,9.256 21.256,21.305 -0.111,0.665 -0.725,2.333 -0.906,2.721 -0.714,1.556 -1.288,2.229 -2.259,3.627 -1.425,2.049 -2.275,3.255 -4.072,4.533 -1.659,1.178 -2.605,1.368 -4.07,1.813 -0.17,0.051 -0.666,0.831 -0.905,0.906 -3.027,0.957 -9.733,0.484 -11.761,-0.453 -1.675,-0.773 -3.158,-1.672 -4.524,-2.72 -2.241,-1.725 -2.918,-2.734 -4.067,-4.533 -0.928,-1.446 -0.949,-1.823 -1.358,-3.173 -0.051,-0.171 -0.828,-0.67 -0.906,-0.908 -0.721,-2.214 -0.467,-6.56 0,-9.065 0.398,-2.122 1.219,-4.821 1.812,-5.44 M 483.825,15.321 c 0.309,-0.608 0.077,-1.269 0.452,-1.812 0.947,-1.38 4.34,-4.326 5.426,-4.988 4.097,-2.486 12.945,-3.125 18.095,0 7.719,4.689 10.472,16.432 5.878,24.025 -2.245,3.718 -7.447,7.495 -11.76,8.161 -7.7,1.189 -15.246,-3.453 -18.091,-8.161 -1.682,-2.781 -2.521,-8.229 -1.811,-12.238 0.49,-2.753 1.163,-3.723 1.811,-4.987 m -2.713,135.996 c 1.296,-8.32 9.456,-14.592 18.996,-13.599 4.388,0.458 7.274,2.302 9.95,4.985 5.079,5.092 6.662,15.178 2.259,21.761 -1.766,2.643 -5.723,5.926 -8.137,6.8 -5.591,2.022 -12.567,0.377 -15.831,-1.815 -5.176,-3.474 -8.445,-9.137 -7.237,-17.225 0.044,-0.295 -0.048,-0.611 0,-0.907 m 1.355,126.477 c 1.854,-2.827 5.838,-6.441 8.595,-7.254 6.209,-1.831 11.73,-0.279 15.377,2.267 4.461,3.115 7.355,7.23 7.69,14.052 0.217,4.412 -1.764,7.503 -3.166,9.521 -2.437,3.507 -5.731,6.273 -9.952,7.253 -5.802,1.346 -10.723,-0.735 -13.568,-2.721 -5.134,-3.584 -8.19,-8.832 -7.236,-16.319 0.434,-3.4 1.056,-4.961 2.26,-6.799 m -0.903,131.916 c 1.856,-2.828 5.834,-6.441 8.592,-7.253 6.213,-1.832 11.731,-0.28 15.378,2.265 4.461,3.115 7.355,7.231 7.69,14.053 0.216,4.411 -1.764,7.502 -3.166,9.52 -2.437,3.506 -5.731,6.274 -9.95,7.253 -5.8,1.347 -10.725,-0.735 -13.571,-2.719 -5.134,-3.585 -8.189,-8.833 -7.236,-16.32 0.434,-3.4 1.056,-4.962 2.263,-6.799 m -3.168,137.808 c 0.265,-3.363 2.127,-6.827 3.618,-8.613 2.124,-2.543 5.97,-4.107 8.142,-4.986 1.133,-0.459 3.651,-0.907 4.976,-0.907 5.382,0 10.597,2.874 13.115,5.893 2.308,2.764 3.773,7.433 4.07,11.333 0.085,1.093 -0.139,3.369 -0.448,4.533 -0.553,2.053 -2.315,5.236 -3.622,6.8 -2.592,3.105 -8.274,5.893 -13.115,5.893 -4.351,0 -9.956,-2.106 -13.118,-5.893 -1.807,-2.168 -3.85,-6.501 -4.068,-12.24 -0.018,-0.458 0.435,-0.771 0.45,-0.906 0.037,-0.298 -0.022,-0.607 0,-0.907 m -9.497,-436.546 c 1.057,-4.544 5.058,-8.323 5.425,-8.615 0.185,-0.141 0.693,0.098 0.906,0 0.147,-0.064 0.288,-0.793 0.453,-0.905 0.21,-0.138 0.673,0.105 0.906,0 0.165,-0.075 0.25,-0.806 0.452,-0.907 0.354,-0.176 0.976,0.115 1.355,0 0.172,-0.052 0.669,-0.828 0.905,-0.906 3.457,-1.131 10.126,-0.301 11.761,0.454 1.49,0.687 1.689,1.188 3.165,2.264 0.409,0.298 1.001,0.181 1.358,0.455 0.228,0.174 0.681,0.682 0.905,0.907 0.814,0.817 0.814,1.524 1.355,2.266 0.559,0.766 1.557,1.299 1.811,1.815 0.173,0.353 -0.118,0.977 0,1.359 0.051,0.169 0.824,0.669 0.906,0.905 1.262,3.877 0.198,10.352 -0.906,12.695 -2.371,5.02 -8.19,8.517 -11.307,9.065 -2.327,0.408 -5.603,0.288 -7.237,0 -2.392,-0.421 -4.712,-2.298 -5.882,-3.172 -0.397,-0.299 -1.001,-0.178 -1.354,-0.454 -0.376,-0.294 -0.567,-1.01 -0.906,-1.359 -3.43,-3.526 -5.341,-8.394 -4.071,-14.962 0.055,-0.289 -0.066,-0.617 0,-0.905 m 5.425,122.849 c 0.815,-0.568 1.197,-1.04 1.812,-1.359 0.485,-0.254 1.2,-0.665 1.81,-0.907 3.497,-1.391 9.456,-0.877 11.757,0 3.096,1.176 5.691,3.341 7.236,5.439 2.78,3.769 4.251,10.608 2.264,15.867 -0.688,1.819 -1.432,2.952 -2.264,4.08 -1.233,1.675 -1.697,2.086 -3.165,3.172 -1.439,1.068 -4.793,2.891 -6.331,3.174 -5.812,1.067 -8.812,-0.593 -11.76,-2.267 -1.517,-0.862 -3.224,-1.797 -4.071,-2.719 -0.339,-0.369 -0.147,-0.924 -0.453,-1.36 -0.651,-0.935 -1.391,-1.363 -1.807,-2.266 -0.236,-0.508 -0.733,-0.943 -0.906,-1.36 -1.078,-2.628 -0.964,-7.418 -0.452,-9.973 1.016,-5.078 3.371,-7.451 6.33,-9.521 m -5.425,136.902 c 0.652,-1.119 1.395,-1.71 1.807,-2.265 0.324,-0.433 0.096,-1 0.453,-1.361 0.324,-0.323 1.009,-0.644 1.359,-0.906 1.461,-1.094 2.355,-2.047 4.071,-2.72 4.001,-1.571 8.138,-1.118 9.496,-0.907 2.02,0.314 4.277,1.643 5.882,2.72 2.205,1.483 3.173,2.516 4.523,4.533 3.549,5.307 3.254,13.263 0,18.133 -1.564,2.335 -2.44,3.133 -4.523,4.533 -0.968,0.65 -2.116,1.58 -2.713,1.813 -5.455,2.142 -12.246,0.294 -15.378,-1.813 -2.779,-1.864 -2.931,-2.15 -4.524,-4.533 -2.168,-3.24 -3.132,-7.327 -2.264,-12.239 0.49,-2.741 1.002,-3.593 1.811,-4.988 m 4.524,126.024 c 2.179,-1.335 6.897,-2.724 10.854,-2.268 1.602,0.186 5.029,1.774 5.879,2.268 2.075,1.204 3.758,2.972 4.976,4.533 0.571,0.732 0.607,1.155 0.906,1.813 0.073,0.168 0.806,0.247 0.901,0.453 0.254,0.537 0.203,1.836 0.454,2.72 0.308,1.084 0.809,1.842 0.905,2.72 0.482,4.439 -1.057,7.889 -2.26,9.973 -1.2,2.073 -2.931,3.739 -4.524,4.987 -0.733,0.572 -1.152,0.61 -1.811,0.906 -0.166,0.076 -0.247,0.81 -0.449,0.906 -0.564,0.265 -1.631,0.144 -2.717,0.454 -0.968,0.277 -1.888,0.817 -2.712,0.907 -4.45,0.486 -7.906,-1.08 -9.949,-2.267 -2.018,-1.169 -3.776,-2.994 -4.977,-4.533 -0.57,-0.732 -0.607,-1.155 -0.905,-1.813 -0.074,-0.168 -0.806,-0.247 -0.906,-0.454 -0.202,-0.434 -0.206,-1.408 -0.448,-2.266 -0.24,-0.84 -0.807,-1.58 -0.907,-2.267 -0.287,-1.941 0.358,-4.857 0.454,-5.44 0.809,-4.996 3.393,-8.983 7.236,-11.332 m -0.905,131.916 c 2.182,-1.335 6.897,-2.725 10.854,-2.267 1.602,0.185 5.031,1.773 5.882,2.267 2.072,1.205 3.758,2.972 4.973,4.532 0.57,0.732 0.611,1.157 0.905,1.813 0.074,0.168 0.806,0.247 0.906,0.454 0.25,0.537 0.198,1.836 0.452,2.721 0.306,1.083 0.807,1.84 0.903,2.718 0.481,4.441 -1.057,7.89 -2.261,9.974 -1.196,2.073 -2.93,3.739 -4.524,4.986 -0.728,0.574 -1.152,0.611 -1.807,0.908 -0.169,0.075 -0.246,0.81 -0.452,0.905 -0.564,0.264 -1.627,0.144 -2.717,0.454 -0.968,0.277 -1.888,0.817 -2.713,0.908 -4.449,0.485 -7.902,-1.081 -9.949,-2.267 -2.017,-1.169 -3.777,-2.994 -4.976,-4.534 -0.571,-0.732 -0.607,-1.155 -0.906,-1.813 -0.073,-0.168 -0.806,-0.247 -0.901,-0.454 -0.207,-0.434 -0.21,-1.407 -0.454,-2.265 -0.239,-0.842 -0.801,-1.581 -0.905,-2.267 -0.287,-1.943 0.358,-4.859 0.453,-5.44 0.81,-4.997 3.394,-8.985 7.237,-11.333 M 456.687,71.533 c 0.231,-1.009 1.814,-4.325 2.263,-4.987 0.803,-1.187 2.433,-2.148 3.165,-2.719 1.2,-0.937 1.098,-1.471 2.713,-2.266 2.621,-1.292 8.014,-2.25 11.308,-1.361 1.026,0.277 4.534,1.967 4.976,2.268 1.185,0.805 2.142,2.437 2.713,3.172 0.29,0.375 1.085,0.506 1.358,0.906 0.482,0.712 1.218,3.147 1.807,4.534 0.92,2.169 1.053,6.376 0.453,8.612 -0.291,1.082 -2.036,4.657 -2.26,4.988 -0.806,1.187 -2.433,2.146 -3.169,2.717 -1.189,0.933 -1.137,1.492 -2.713,2.269 -2.639,1.302 -7.973,2.259 -11.307,1.359 -1.067,-0.288 -4.454,-1.912 -4.976,-2.265 -1.182,-0.808 -2.143,-2.439 -2.713,-3.175 -0.291,-0.375 -1.086,-0.507 -1.355,-0.905 -0.309,-0.456 -0.412,-1.637 -0.905,-2.721 -0.376,-0.817 -1.149,-1.481 -1.358,-2.267 -0.46,-1.732 -0.056,-4.872 0,-5.44 0.084,-0.867 -0.192,-1.87 0,-2.719 m -0.906,131.916 c 0.232,-1.009 1.815,-4.326 2.264,-4.985 0.806,-1.189 2.433,-2.15 3.165,-2.722 1.2,-0.936 1.097,-1.47 2.713,-2.266 2.621,-1.291 8.013,-2.248 11.307,-1.36 1.027,0.278 4.535,1.966 4.977,2.267 1.185,0.807 2.142,2.438 2.712,3.172 0.291,0.377 1.086,0.508 1.358,0.909 0.483,0.711 1.223,3.146 1.808,4.531 0.92,2.169 1.053,6.377 0.452,8.614 -0.29,1.081 -2.035,4.657 -2.26,4.987 -0.805,1.187 -2.432,2.146 -3.165,2.72 -1.192,0.929 -1.141,1.49 -2.716,2.265 -2.639,1.302 -7.973,2.259 -11.308,1.361 -1.067,-0.289 -4.453,-1.913 -4.973,-2.266 -1.184,-0.809 -2.141,-2.44 -2.716,-3.173 -0.291,-0.376 -1.086,-0.507 -1.354,-0.907 -0.31,-0.456 -0.412,-1.637 -0.906,-2.722 -0.371,-0.817 -1.148,-1.48 -1.358,-2.265 -0.46,-1.734 -0.052,-4.871 0,-5.44 0.084,-0.868 -0.191,-1.872 0,-2.72 m -0.902,134.636 c 0.092,-2.794 0.578,-3.273 1.354,-4.987 1.764,-3.881 3.656,-5.509 6.785,-7.252 1.523,-0.847 2.311,-1.573 3.622,-1.815 7.239,-1.333 11.119,1.176 14.472,4.534 1.491,1.495 3.464,3.623 4.071,5.44 0.902,2.708 1.13,7.48 0,10.879 -0.121,0.364 -0.862,0.916 -1.358,1.814 -1.841,3.32 -3.559,4.801 -6.331,6.347 -1.373,0.764 -2.404,1.59 -3.618,1.813 -5.051,0.93 -10.17,-0.848 -12.666,-2.721 -3.379,-2.533 -6.783,-7.155 -6.783,-12.692 0,-0.31 0.452,-0.494 0.452,-0.454 0.015,-0.301 -0.011,-0.605 0,-0.906 m 8.139,118.316 c 4.748,-1.889 10.011,-1.056 12.665,0 3.309,1.316 7.082,5.487 8.142,8.16 1.638,4.139 1.274,9.475 0,12.693 -1.266,3.198 -5.592,7.146 -8.142,8.159 -3.843,1.528 -9.147,1.4 -12.665,0 -1.716,-0.683 -3.148,-2.251 -4.521,-3.626 -3.618,-3.623 -5.466,-7.795 -4.07,-14.507 1.284,-6.18 6.338,-9.982 8.591,-10.879 m -3.166,133.729 c 0.95,-0.59 2.922,-2.042 3.618,-2.267 5.068,-1.638 10.608,0.269 13.119,1.813 3.265,2.011 6.617,6.215 7.236,9.974 1.954,11.868 -8.392,20.264 -18.544,18.585 -2.363,-0.39 -6.64,-2.772 -8.594,-4.985 -1.171,-1.328 -1.892,-3.311 -2.26,-4.534 -0.052,-0.171 -0.828,-0.67 -0.906,-0.907 -0.714,-2.184 -0.313,-6.492 0,-8.159 0.935,-4.983 3.401,-7.693 6.331,-9.52 M 447.643,27.107 c 2.904,-3.473 5.75,-5.6 11.307,-5.893 5.558,-0.294 8.583,2.259 10.855,4.534 2.584,2.59 4.292,5.565 4.519,9.974 0.141,2.655 -0.809,4.955 -1.354,6.344 -0.964,2.464 -1.447,2.81 -3.165,4.535 -2.621,2.626 -5.481,4.297 -9.953,4.533 -7.181,0.378 -12.224,-4.477 -14.02,-9.068 -0.891,-2.276 -1.329,-5.231 -0.905,-8.158 0.5,-3.449 1.324,-5.137 2.716,-6.801 m 4.972,127.384 c 10.896,-4.228 20.355,4.504 20.355,13.599 0,8.196 -7.177,15.151 -15.378,14.96 -3.508,-0.083 -8.131,-1.833 -10.855,-4.988 -1.439,-1.664 -3.383,-5.658 -3.618,-10.879 -0.022,-0.47 0.431,-0.758 0.453,-0.906 0.876,-6.88 4.218,-9.915 9.043,-11.786 m -8.141,136.902 c 0.224,-0.366 1.078,-0.554 1.358,-0.907 0.489,-0.614 0.456,-1.382 0.905,-1.812 0.56,-0.541 1.951,-1.122 3.165,-1.815 2.205,-1.257 4.462,-2.339 7.69,-2.266 7.656,0.173 14.664,7.043 14.472,15.414 -0.22,9.681 -10.74,17.109 -20.354,13.599 -1.362,-0.5 -4.704,-2.874 -5.426,-3.627 -0.346,-0.361 -0.15,-0.925 -0.452,-1.36 -0.258,-0.373 -1.108,-0.513 -1.358,-0.906 -1.635,-2.606 -2.066,-6.851 -1.808,-9.52 0.251,-2.625 0.641,-4.894 1.808,-6.8 m -2.26,135.542 c 0.802,-3.356 5.797,-8.258 7.688,-9.067 3.512,-1.501 10.892,-0.758 12.666,0 2.728,1.168 6.991,6.317 7.69,8.613 1.939,6.399 -0.74,12.527 -3.618,15.414 -1.661,1.661 -4.065,3.209 -5.43,3.626 -6.386,1.948 -12.552,-0.795 -15.378,-3.626 -3.36,-3.37 -4.943,-7.863 -3.618,-14.053 0.062,-0.288 -0.07,-0.621 0,-0.907 m -0.905,132.37 c 0.82,-3.054 3.058,-6.223 4.975,-7.707 0.479,-0.37 1.639,-0.56 2.261,-0.906 0.747,-0.417 1.405,-1.237 1.81,-1.361 7.358,-2.248 12.717,0.962 15.378,3.627 1.197,1.202 3.314,4.438 3.619,5.44 1.961,6.451 -0.898,12.686 -3.619,15.413 -1.107,1.111 -4.494,3.341 -5.428,3.626 -5.316,1.624 -10.178,-0.223 -12.662,-1.813 -4.84,-3.095 -7.863,-7.798 -6.334,-15.413 0.058,-0.287 -0.075,-0.625 0,-0.906 M 459.399,0.814 c -1.314,5.494 -6.087,9.638 -12.209,9.974 -6.537,0.358 -11.65,-3.762 -14.024,-8.612 V 0.814 Z m -24.875,118.77 c 7.549,-9.621 24.875,-5.03 24.875,8.614 0,7.616 -5.941,14.253 -14.472,14.052 -7.182,-0.168 -14.26,-6.172 -13.568,-15.411 0.022,-0.316 0.453,-0.459 0.453,-0.453 0.416,-3.257 0.99,-4.607 2.712,-6.802 m -2.712,134.184 c 0.062,-0.138 0.792,-0.302 0.905,-0.453 0.28,-0.377 0.218,-1.024 0.449,-1.362 1.8,-2.588 4.874,-4.664 8.143,-5.439 9.65,-2.286 17.361,6.011 17.188,14.053 -0.162,7.497 -6.812,13.601 -14.023,13.601 -3.479,0 -8.235,-2.154 -10.403,-4.534 -0.319,-0.352 -0.508,-1.217 -0.905,-1.814 -0.375,-0.562 -1.248,-1.125 -1.354,-1.359 -0.92,-1.981 -1.057,-6.287 -0.906,-7.707 0.196,-1.857 0.335,-3.725 0.906,-4.986 m -1.359,133.73 c 0.526,-1.752 1.999,-3.181 2.713,-4.081 0.604,-0.758 0.497,-1.437 0.905,-1.813 0.126,-0.114 0.818,-0.395 0.907,-0.454 0.382,-0.254 0.591,-0.71 0.905,-0.907 2.771,-1.754 8.855,-2.57 12.209,-1.359 6.169,2.224 11.447,9.735 8.595,17.68 -2.72,7.581 -12.578,12 -20.352,7.252 -0.945,-0.577 -2.197,-1.296 -2.716,-1.813 -0.349,-0.352 -0.151,-0.927 -0.453,-1.359 -0.258,-0.373 -1.107,-0.513 -1.354,-0.908 -1.823,-2.901 -2.19,-7.719 -1.359,-11.333 0.067,-0.282 -0.084,-0.629 0,-0.905 m -0.905,131.915 c 0.832,-3.481 5.426,-7.839 7.236,-8.614 3.287,-1.405 9.943,-0.778 11.761,0 1.991,0.851 5.996,4.945 6.787,6.8 1.232,2.903 1.09,8.328 0.449,10.427 -0.67,2.208 -2.157,3.524 -3.618,4.986 -1.31,1.315 -2.496,2.694 -3.618,3.174 -2.827,1.209 -8.559,1.369 -11.761,0 -1.303,-0.559 -2.462,-2.016 -3.618,-3.174 -3.242,-3.25 -4.848,-6.811 -3.618,-12.693 0.062,-0.288 -0.067,-0.621 0,-0.906 m 16.736,122.848 c 2.201,0.672 3.354,2.002 4.977,3.627 1.708,1.714 3.095,3.265 3.618,4.987 0.736,2.428 0.682,5.606 0,8.613 h -26.233 c -3.099,-11.56 7.133,-20.431 17.638,-17.227 M 426.835,77.427 c 8.308,-4.3 18.997,1.507 18.997,11.333 0,7.066 -6.269,13.146 -13.115,13.146 -3.902,0 -8.974,-2.712 -10.405,-5.894 -0.071,-0.158 -0.795,-0.267 -0.904,-0.453 -1.308,-2.269 -1.591,-6.058 -1.356,-8.162 0.614,-5.54 3.217,-8.126 6.783,-9.97 m -5.878,135.088 c 1.097,-1.15 1.671,-1.794 2.713,-2.267 0.14,-0.062 0.294,-0.793 0.452,-0.905 2.728,-1.967 9.435,-2.502 13.115,-0.907 0.427,0.183 0.71,0.895 1.359,1.36 0.514,0.371 1.457,0.566 1.806,0.906 2.861,2.748 4.686,9.049 3.17,14.054 -0.39,1.275 -1.097,1.722 -1.811,2.719 -0.372,0.518 -0.567,1.459 -0.906,1.813 -1.089,1.142 -4.085,2.903 -4.972,3.174 -4.487,1.366 -10.001,-0.175 -12.213,-1.814 -0.685,-0.508 -1.605,-1.145 -1.812,-1.36 -0.279,-0.294 -2.222,-3.088 -2.259,-3.173 -1.055,-2.444 -1.053,-6.292 -0.453,-9.066 0.446,-2.057 1.014,-3.7 1.811,-4.534 m 1.355,129.651 c 1.167,-0.777 4.335,-2.596 4.976,-2.721 1.388,-0.273 4.969,-0.273 6.331,0 3.96,0.795 8.782,5.868 9.5,9.519 0.854,4.361 -0.578,7.353 -1.81,9.52 -0.995,1.752 -1.473,2.615 -2.713,3.173 -0.141,0.063 -0.295,0.795 -0.453,0.907 -7.48,5.389 -17.164,0.773 -19.903,-5.893 -0.831,-2.028 -0.298,-6.38 0,-7.707 0.647,-2.864 2.596,-5.817 4.072,-6.798 m -4.975,138.261 c 0.793,-3.319 4.728,-7.28 6.785,-8.16 3,-1.284 8.805,-0.877 10.856,0 0.872,0.374 2.719,1.821 3.618,2.72 3.304,3.312 4.641,9.976 2.713,14.507 -0.347,0.816 -1.731,2.64 -2.713,3.626 -2.482,2.487 -6.637,4.29 -11.308,3.627 -3.957,-0.562 -8.507,-4.925 -9.498,-7.253 -1.029,-2.415 -0.977,-5.529 -0.453,-8.161 0.058,-0.289 -0.068,-0.619 0,-0.906 m 5.428,124.21 c 1.548,-0.764 3.146,-1.25 4.976,-1.361 7.56,-0.455 11.572,4.462 13.114,9.52 1.682,5.512 -1.972,11.806 -4.52,13.6 -0.891,0.624 -2.926,1.323 -4.523,1.813 -6.151,1.884 -12.478,-2.28 -14.475,-6.347 -1.174,-2.393 -1.33,-5.73 -0.903,-8.159 0.838,-4.792 3.535,-7.688 6.331,-9.066 m -9.95,-565.289 c 0.157,-0.073 0.265,-0.799 0.453,-0.909 2.794,-1.619 8.786,-1.589 10.854,-0.905 0.909,0.301 3.077,1.725 4.071,2.719 4.392,4.404 3.814,13.406 0,17.226 -2.756,2.761 -8.12,4.372 -13.118,2.721 -0.857,-0.284 -2.463,-1.496 -3.165,-1.813 -0.971,-0.439 -1.568,-2.182 -1.809,-2.721 -0.072,-0.156 -0.797,-0.268 -0.904,-0.453 -1.379,-2.388 -1.612,-6.467 -0.906,-9.52 0.877,-3.793 2.677,-5.511 4.524,-6.345 m -3.618,134.182 c 0.775,-1.138 1.66,-1.494 2.713,-2.266 0.535,-0.394 1.432,-1.396 1.358,-1.361 1.447,-0.671 6.34,-1.237 8.14,-0.907 1.787,0.33 2.818,1.345 4.069,2.268 1.627,1.194 1.701,1.333 2.716,2.72 1.142,1.557 1.484,1.644 1.808,2.718 0.121,0.396 0.441,1.292 0.452,1.36 0.825,4.503 -0.938,7.71 -2.26,9.52 -1.273,1.741 -1.273,1.66 -2.716,2.721 -1.472,1.083 -1.697,1.503 -2.712,1.813 -0.395,0.119 -1.289,0.441 -1.357,0.453 -4.417,0.813 -7.685,-0.934 -9.498,-2.266 -1.597,-1.173 -1.705,-1.343 -2.713,-2.721 -1.976,-2.7 -2.556,-6.002 -1.811,-9.52 0.449,-2.107 1.056,-3.425 1.811,-4.532 m 2.713,128.743 c 4.801,-2.61 9.728,-1.105 11.76,0 5.204,2.829 7.553,10.715 4.523,16.32 -1.906,3.524 -5.863,5.607 -9.047,5.892 -2.735,0.245 -5.188,-0.772 -6.331,-1.359 -0.607,-0.312 -1.268,-0.079 -1.811,-0.454 -1.022,-0.706 -3.143,-3.201 -3.618,-4.079 -1.087,-2.014 -1.362,-5.655 -0.904,-8.161 0.897,-4.899 4.36,-7.579 5.428,-8.159 m -1.358,132.369 c 0.162,-0.073 0.261,-0.802 0.452,-0.907 0.605,-0.333 1.175,-0.221 1.811,-0.453 7.616,-2.782 15.831,2.469 15.831,10.88 0,6.217 -4.836,11.786 -11.76,11.786 -6.411,0 -12.326,-5.129 -11.76,-13.147 0.022,-0.331 0.449,-0.438 0.453,-0.453 0.581,-3.935 2.442,-6.563 4.973,-7.706 m -2.713,132.822 c 1.645,-1.53 5.838,-3.264 8.595,-3.173 4.067,0.133 7.656,3.139 9.043,5.44 1.056,1.745 2.337,4.495 2.264,6.799 -0.095,2.862 -2.007,6.662 -3.619,8.16 -0.776,0.721 -2.296,1.265 -3.618,1.814 -3.691,1.533 -5.631,1.424 -9.047,0 -4.454,-1.858 -6.539,-4.842 -7.236,-10.427 -0.059,-0.475 0.439,-0.768 0.452,-0.906 0.302,-3.316 1.594,-6.244 3.166,-7.707 m -0.453,92.024 c -3.471,-0.299 -8.134,0.599 -10.855,-0.452 3.225,-1.452 8.241,-1.902 10.855,0.452 m -0.452,-639.18 c -6.335,0 -11.474,-5.865 -10.855,-12.241 0.235,-2.411 1.783,-6.321 4.976,-7.253 4.027,-1.172 7.796,0.878 12.664,0 7.818,7.092 3.083,19.494 -6.785,19.494 m -6.785,112.421 c 0.163,-0.071 0.262,-0.798 0.454,-0.905 0.605,-0.334 1.173,-0.219 1.808,-0.453 7.182,-2.647 14.475,2.824 14.475,9.973 0,4.687 -3.912,10.88 -10.857,10.88 -3.763,0 -7.547,-2.664 -8.592,-4.986 -0.074,-0.162 -0.8,-0.26 -0.906,-0.454 -1.038,-1.917 -1.229,-4.331 -0.905,-6.8 0.533,-4.029 2.297,-6.247 4.523,-7.255 m -0.452,131.011 c 0.927,-0.479 1.468,-1.204 2.264,-1.359 5.988,-1.168 10.218,2.145 11.758,4.985 3.101,5.72 0.239,12.407 -3.618,14.507 -5.697,3.102 -12.38,0.239 -14.475,-3.627 -1.244,-2.297 -1.465,-5.626 -0.903,-8.159 0.798,-3.597 2.39,-5.009 4.974,-6.347 m 2.264,130.556 c 8.021,-1.071 13.424,5.363 12.211,12.693 -0.971,5.857 -7.301,9.051 -12.664,8.16 -3.756,-0.623 -7.586,-4.425 -8.142,-8.614 -0.224,-1.689 0.352,-4.109 0.452,-4.532 1.02,-4.299 4.241,-7.186 8.143,-7.707 m 1.354,131.916 c 6.769,0.241 9.953,5.441 9.953,10.427 0,4.97 -4.13,10.665 -10.857,10.426 -6.005,-0.214 -10.091,-4.75 -9.95,-10.879 0.018,-0.839 0.379,-1.452 0.452,-1.814 1.034,-5.115 4.987,-8.352 10.402,-8.16 M 384.771,96.466 c 0.365,-0.66 1.913,-2.034 2.264,-2.267 0.359,-0.239 0.614,-0.74 0.902,-0.907 4.001,-2.331 10.317,-0.6 12.212,2.267 0.235,0.352 0.747,0.628 0.906,0.907 2.326,4.123 0.681,10.282 -2.262,12.239 -0.352,0.233 -0.624,0.746 -0.903,0.907 -4.053,2.298 -10.347,0.554 -12.213,-2.266 -1.27,-1.921 -1.997,-3.835 -1.81,-6.348 0.218,-2.916 0.201,-3.254 0.904,-4.532 m 1.359,130.103 c 2.06,-1.821 5.023,-3.111 8.593,-2.267 0.119,0.028 0.722,0.813 0.903,0.906 0.607,0.311 1.27,0.079 1.811,0.453 1.495,1.038 2.334,2.804 2.712,3.627 0.192,0.416 0.83,1.039 0.906,1.36 0.734,3.123 -0.504,5.56 -0.906,6.346 -0.308,0.605 -0.075,1.278 -0.452,1.814 -2.105,3.001 -6.182,4.624 -10.402,3.626 -0.121,-0.028 -0.725,-0.813 -0.905,-0.907 -0.604,-0.31 -1.271,-0.079 -1.808,-0.453 -1.404,-0.975 -2.328,-2.787 -2.715,-3.626 -0.943,-2.05 -1.352,-3.449 -0.452,-6.8 0.616,-2.294 1.33,-2.858 2.715,-4.079 m 0.905,130.556 c 6.537,-3.303 12.528,2.377 13.114,6.799 0.904,6.794 -4.931,11.42 -10.854,10.426 -3.129,-0.524 -6.685,-4.102 -7.236,-6.8 -0.3,-1.464 0.389,-4.266 0.453,-4.533 0.735,-3.215 2.418,-4.829 4.523,-5.892 m -0.905,131.462 c 6.537,-3.303 12.529,2.379 13.114,6.799 0.905,6.794 -4.931,11.42 -10.854,10.427 -3.127,-0.524 -6.685,-4.104 -7.237,-6.801 -0.299,-1.463 0.392,-4.266 0.452,-4.533 0.737,-3.216 2.419,-4.83 4.525,-5.892 m 3.165,131.009 c 5.534,0 9.223,5.069 9.048,9.519 -0.189,4.72 -4.785,8.801 -9.501,8.614 -4.94,-0.197 -8.808,-4.665 -8.593,-9.973 0.014,-0.358 0.447,-0.415 0.451,-0.454 0.777,-4.93 4.338,-7.706 8.595,-7.706 M 378.893,54.307 c 2.219,-0.275 5.448,0.272 7.237,2.267 2.742,3.054 2.561,8.614 -0.453,11.332 -0.731,0.659 -2.457,1.608 -4.072,1.814 -6.293,0.804 -10.136,-4.012 -8.594,-9.974 0.829,-3.194 3.105,-5.096 5.882,-5.439 m -0.453,131.462 c 5.51,-0.518 8.348,4.181 8.595,6.8 0.375,4.009 -2.663,8.226 -6.786,8.613 -5.655,0.533 -9.436,-3.969 -8.142,-9.52 0.924,-3.964 3.664,-5.641 6.333,-5.893 m -4.976,133.277 c 0.387,-0.259 1.664,-0.863 1.81,-0.907 4.388,-1.32 9.078,1.774 9.95,4.533 1.77,5.595 -2.735,10.643 -7.689,10.426 -4.594,-0.2 -7.126,-4.243 -6.784,-8.159 0.27,-3.103 1.115,-4.831 2.713,-5.893 m 2.264,131.008 c 5.228,-0.746 8.211,3.225 8.59,5.894 0.747,5.254 -3.672,9.701 -9.044,8.613 -2.407,-0.488 -5.075,-3.525 -5.428,-4.987 -0.335,-1.388 -0.155,-2.397 0.453,-4.533 0.934,-3.286 3.542,-4.717 5.429,-4.987 m -0.454,131.917 c 4.188,-0.391 6.818,2.408 7.69,4.533 0.339,0.827 0.424,1.647 0.451,2.266 0.329,7.115 -8.959,10.188 -13.116,4.986 -0.144,-0.178 0.096,-0.692 0,-0.906 -0.074,-0.166 -0.805,-0.252 -0.906,-0.453 -0.784,-1.574 -0.206,-4.12 0,-4.986 0.894,-3.728 3.405,-5.209 5.881,-5.44 M 373.011,24.388 c -0.221,0.795 -2.422,3.293 -3.618,3.627 -5.823,1.627 -9.251,-3.56 -7.689,-8.161 2.429,-7.142 13.457,-3.194 11.307,4.534 m -7.237,123.756 c 5.57,-0.296 6.83,4.268 6.333,7.252 -0.474,2.857 -3.826,5.105 -7.236,4.534 -3.514,-0.586 -5.058,-4.302 -4.071,-7.706 0.923,-3.186 2.818,-3.966 4.974,-4.08 m -0.903,131.916 c 5.569,-0.295 6.83,4.267 6.333,7.253 -0.475,2.858 -3.826,5.103 -7.236,4.533 -3.516,-0.586 -5.058,-4.301 -4.072,-7.706 0.922,-3.184 2.816,-3.966 4.975,-4.08 m -2.715,131.917 c 0.291,-0.107 1.941,-0.459 1.812,-0.454 4.247,-0.149 6.489,3.541 6.331,6.345 -0.175,3.108 -3.641,5.593 -6.331,5.441 -3.376,-0.191 -5.274,-3.727 -4.977,-6.348 0.337,-2.978 1.866,-4.506 3.165,-4.984 m -0.903,132.367 c 6.929,-2.976 9.392,6.006 6.333,9.067 -2.437,2.438 -6.814,1.331 -8.143,0 -0.926,-0.929 -1.758,-3.094 -0.905,-5.893 0.651,-2.131 1.355,-2.589 2.715,-3.174 M 568.405,308.619 c 0.534,-0.805 1.473,2.406 2.261,3.626 0.35,0.544 0.945,1.254 1.357,1.813 1.094,1.487 2.971,3.261 4.973,4.535 2.603,1.654 6.291,3.401 11.308,3.172 0.01,0.8 -0.902,1.378 -1.355,1.813 -0.67,0.642 -0.828,0.802 -1.358,1.361 -0.839,0.882 -1.958,1.607 -2.713,2.719 -0.585,0.86 -0.835,2.101 -1.357,3.175 -1.161,2.381 -2.717,5.77 -2.261,10.425 -1.174,0.533 -1.627,-1.656 -2.716,-2.72 -0.379,-0.373 -1.285,-0.934 -1.808,-1.36 -2.8,-2.275 -7.873,-4.907 -14.019,-4.532 -11.106,0.675 -19.693,10.309 -18.997,21.758 0.57,9.417 9.01,20.021 21.709,19.04 10.217,-0.79 18.334,-8.133 18.997,-20.853 0.408,-0.828 1.406,1.75 2.26,2.721 1.129,1.28 3.22,2.988 4.976,4.078 2.15,1.334 5.204,2.38 8.595,3.174 0.614,0.982 -0.939,1.279 -1.359,1.814 -0.305,0.386 -0.169,0.988 -0.453,1.359 -2.322,3.044 -5.266,7.439 -4.975,14.054 -1.075,0.594 -1.756,-1.417 -2.713,-2.267 -0.626,-0.555 -1.226,-0.952 -1.808,-1.359 -1.119,-0.786 -2.072,-1.55 -3.618,-2.267 -12.846,-5.953 -28.36,3.265 -29.402,17.226 -0.236,3.189 0.284,6.064 1.358,9.066 0.489,1.365 1.101,2.402 1.811,3.626 0.891,1.544 3.648,5.062 5.425,6.348 0.52,0.374 1.255,0.099 1.812,0.452 0.375,0.239 0.4,0.656 0.901,0.907 0.501,0.249 1.13,0.153 1.811,0.454 0.232,0.102 0.729,0.848 0.906,0.905 2.322,0.761 5.308,0.794 8.138,0.908 0.938,0.212 -0.802,1.295 -1.355,1.813 -1.255,1.169 -2.23,2.06 -3.618,3.626 -2.746,3.094 -5.466,8.628 -4.523,16.319 0.254,2.089 1.663,5.362 2.713,7.253 1.354,2.445 2.193,3.333 4.523,5.44 0.629,0.568 0.795,1.385 1.358,1.813 0.593,0.453 1.524,0.489 2.26,0.907 2.838,1.611 6.246,3.08 9.949,2.719 0.42,1.084 -1.229,1.675 -2.259,2.721 -1.874,1.903 -3.14,3.795 -4.525,6.799 -1.177,2.56 -2.69,5.549 -2.26,10.427 -0.239,0.698 -0.47,0.029 -0.452,-0.453 -4.292,-5.049 -9.412,-8.477 -16.284,-8.613 -10.579,-0.21 -20.568,8.101 -20.804,19.946 -0.247,12.448 11.44,23.959 26.233,19.946 -1.328,0.825 -2.599,1.469 -4.07,2.266 -2.077,1.124 -5.341,4.302 -6.785,6.8 -1.604,2.776 -3.456,6.975 -3.165,12.239 0.626,11.449 10.608,21.076 24.422,19.04 -1.391,1.077 -3.058,1.898 -4.523,3.174 -3.011,2.625 -6.504,7.361 -7.237,12.693 -1.907,13.897 7.568,24.211 20.355,24.932 0.258,1.414 -1.498,1.47 -2.264,2.266 -1.601,1.671 -2.827,4.149 -4.067,6.8 -1.203,2.57 -2.75,5.844 -2.264,10.88 -0.39,0.865 -0.268,-0.489 -0.905,-0.453 -3.855,-5.395 -9.46,-8.613 -16.28,-8.613 -10.98,0 -20.355,8.941 -20.355,20.399 0,4.842 2.208,9.556 4.524,12.693 1.394,1.894 2.834,3.001 5.425,4.534 0.865,0.511 1.94,1.245 3.169,1.813 3.107,1.435 9.405,1.756 13.568,0.454 0.593,-0.186 1.509,-1.022 2.259,-1.362 3.733,-1.686 6.265,-3.75 8.595,-7.706 0.449,-0.758 1.274,-2.004 1.811,-3.173 0.718,-1.563 1.189,-5.393 1.354,-8.159 1.065,-0.331 1.304,1.163 2.264,2.265 0.526,0.608 1.017,1.91 1.808,2.268 3.515,1.587 7.007,5.035 12.666,5.439 0.514,1.249 -1.712,1.926 -2.713,3.173 -0.493,0.613 -0.828,1.459 -1.359,2.267 -1.7,2.59 -3.485,6.939 -3.618,11.787 -0.949,0.247 -1.899,-1.185 -3.166,-2.268 -1.199,-1.021 -2.112,-1.899 -3.618,-2.718 -14.417,-7.849 -33.226,3.634 -30.304,21.305 h 39.801 c 1.273,0.066 1.307,-1.111 1.358,-2.267 0.733,-0.705 1.391,2.51 3.165,2.267 h 32.564 c 1.98,-2.701 4.439,-4.92 4.976,-9.066 2.717,1.055 4.134,3.412 7.237,4.08 -0.092,1.889 -2.47,3.851 -1.807,4.986 h 22.162 v -52.132 c 0.309,-1.52 -0.759,-1.657 -1.811,-1.813 0.368,-1.597 1.822,-2.104 1.811,-4.08 -0.317,-39.736 0.419,-80.729 0,-121.036 -0.018,-1.709 0.519,-4.003 0,-5.894 -0.066,-0.235 -0.906,-0.937 -0.906,-0.906 -0.003,-0.911 0.744,-1.439 0.906,-3.173 0.706,-7.672 0,-17.41 0,-25.84 V 0.814 h -17.642 c -1.27,-0.064 -1.303,1.111 -1.355,2.267 -4.895,-3.103 -14.369,-2.267 -23.972,-2.267 h -17.639 c -1.881,0.063 -0.092,0.3 0,0.908 3.041,2.391 6.044,4.822 10.854,5.44 -2.12,4.525 -5.734,7.549 -5.881,14.052 -1.406,0.684 -2.186,-1.166 -3.166,-1.814 -0.625,-0.413 -1.516,-0.454 -2.259,-0.905 -0.586,-0.356 -0.828,-1.122 -1.359,-1.359 -0.622,-0.282 -1.797,-0.145 -2.713,-0.454 -1.443,-0.488 -3.849,-1.432 -6.783,-1.361 -0.468,-0.866 1.715,-1.699 2.712,-2.719 0.476,-0.486 0.796,-1.123 1.359,-1.814 1.741,-2.138 3.872,-5.969 4.52,-9.974 h -41.608 c 2.625,10.514 8.669,17.604 21.71,17.681 0.695,0.239 0.029,0.472 -0.454,0.453 -5.605,4.583 -10.813,11.776 -9.046,22.212 -0.412,0.647 -1.812,-2.563 -2.713,-3.626 -1.157,-1.361 -3.188,-2.799 -4.524,-4.08 -1.682,-1.615 -7.005,-3.106 -10.402,-3.173 -3.674,-0.073 -7.998,1.393 -10.855,3.173 -1.906,1.186 -4.552,4.03 -6.331,5.894 -1.604,1.678 -3.102,7.149 -3.169,10.424 -0.074,3.829 1.388,8.01 3.169,10.881 1.109,1.79 3.987,4.53 5.878,6.346 1.749,1.681 7.517,3.174 10.855,3.174 3.453,0 7.631,-1.445 10.402,-3.174 5.36,-3.339 11.013,-10.526 9.048,-20.398 0.238,-0.699 0.471,-0.03 0.452,0.453 1.9,1.972 2.942,4.553 4.973,6.345 0.597,0.524 1.77,1.194 2.717,1.814 2.459,1.616 6.271,3.063 10.401,3.628 0.526,1.033 -1.406,1.309 -2.26,2.264 -0.335,0.374 -0.47,1.256 -0.905,1.814 -2.536,3.241 -5.624,8.972 -4.523,15.413 -1.013,0.452 -1.433,-0.94 -1.808,-1.359 -0.939,-1.036 -1.484,-2.212 -2.717,-3.172 -0.352,-0.278 -0.957,-0.157 -1.354,-0.454 -1.557,-1.166 -2.665,-2.291 -5.429,-3.174 -12.758,-4.072 -28.195,5.789 -26.686,21.76 1.005,10.63 11.392,20.494 25.327,17.679 -2.587,1.868 -5.226,2.823 -7.236,4.986 -2.463,2.655 -4.925,7.528 -5.426,11.334 -0.684,5.192 0.549,8.614 2.261,12.24 1.155,2.442 2.208,4.696 4.07,6.346 3.983,3.524 10.071,5.898 16.285,5.438 0.437,0.95 -1.09,0.709 -1.359,0.908 -0.585,0.43 -0.872,0.973 -1.358,1.36 -0.935,0.75 -2.363,1.761 -3.165,2.72 -0.302,0.361 -0.181,1.002 -0.453,1.36 -0.269,0.356 -0.615,0.472 -0.902,0.905 -0.217,0.331 -0.18,0.996 -0.453,1.361 -0.508,0.678 -1.233,1.467 -1.81,3.174 -0.866,2.55 -1.8,6.66 -0.903,10.879 -0.239,0.698 -0.474,0.029 -0.452,-0.452 -4.255,-5.398 -8.621,-10.269 -17.189,-10.427 -11.013,-0.206 -20.352,8.825 -20.352,19.944 0,13.183 15.117,25.205 29.399,17.227 0.457,-0.257 0.983,-0.685 1.354,-0.905 1.256,-0.743 3.266,-2.005 4.524,-3.627 0.652,-0.838 1.616,-2.418 2.264,-3.626 0.273,-0.515 0.147,-1.114 0.452,-1.814 0.1,-0.228 0.851,-0.736 0.903,-0.908 0.824,-2.623 1.063,-6.164 0.452,-9.519 0.549,-0.922 1.479,2.097 2.263,3.172 0.262,0.365 0.626,0.455 0.903,0.909 0.327,0.532 1.063,1.573 1.81,2.266 0.464,0.432 1.204,0.424 1.808,0.906 0.832,0.665 2.381,2.415 4.07,3.174 1.038,0.465 2.912,0.633 4.072,0.907 1.288,0.301 2.444,0.431 3.618,0.907 0.18,0.931 -0.729,1.6 -1.355,2.264 -1.354,1.432 -2.83,2.651 -4.071,4.989 -0.327,0.612 -0.128,1.176 -0.452,1.813 -1.082,2.117 -2.371,6.113 -1.812,10.879 -0.643,0.549 -0.791,-0.765 -0.901,-0.906 -0.736,-0.911 -2.367,-3.049 -3.622,-4.08 -0.375,-0.312 -1.009,-0.131 -1.355,-0.454 -2.241,-2.092 -7.608,-4.506 -13.118,-4.08 -9.57,0.74 -18.19,8.516 -18.996,18.586 -1.148,14.36 12.835,25.938 27.138,20.852 2.128,-0.756 3.843,-1.665 5.429,-2.719 1.101,-0.734 2.503,-2.248 3.619,-3.626 2.178,-2.697 4.928,-8.197 4.523,-14.053 0.239,-0.698 0.472,-0.03 0.449,0.454 3.865,4.738 8.448,8.761 15.831,9.972 0.766,0.82 -0.471,0.828 -0.905,1.36 -2.79,3.438 -6.166,8.543 -6.331,15.414 0.029,0.791 -1.45,-1.276 -2.26,-1.814 -0.972,-0.645 -2.592,-2.392 -4.071,-3.174 -14.399,-7.598 -32.465,3.558 -30.757,20.853 0.354,3.564 2.091,7.169 4.071,9.974 3.261,4.624 9.077,8.906 17.638,8.612 0.287,0.966 -1.527,1.606 -2.713,2.72 -4.634,4.355 -8.726,12.073 -6.33,21.759 -3.012,-6.259 -9.04,-12.693 -18.544,-12.693 -5.86,0 -10.877,2.738 -14.024,5.894 -3.155,3.163 -5.779,8.182 -5.878,13.599 -0.323,17.474 21.463,26.994 33.922,14.506 4.086,-4.095 7.284,-11.344 4.976,-18.586 z"
           style="fill:#ffffff;fill-opacity:1;fill-rule:nonzero;stroke:none"
           id="path1098"
           inkscape:connector-curvature="0" /></g></g></g></svg>